<?xml version="1.0" encoding="UTF-8"?>
<!-- Stylized QR for https://pauseai.info — generated by scripts/build-qr.py. Do not edit by hand. -->
<svg xmlns="http://www.w3.org/2000/svg" viewBox="-1 -1 31 31" width="800" height="800">
  <rect x="-1" y="-1" width="31" height="31" fill="#FFFFFF"/>
  <g fill="#B85400">
    <rect x="8" y="0" width="1" height="1"/>
    <rect x="10" y="0" width="1" height="1"/>
    <rect x="11" y="0" width="1" height="1"/>
    <rect x="12" y="0" width="1" height="1"/>
    <rect x="16" y="0" width="1" height="1"/>
    <rect x="18" y="0" width="1" height="1"/>
    <rect x="20" y="0" width="1" height="1"/>
    <rect x="8" y="1" width="1" height="1"/>
    <rect x="11" y="1" width="1" height="1"/>
    <rect x="12" y="1" width="1" height="1"/>
    <rect x="13" y="1" width="1" height="1"/>
    <rect x="14" y="1" width="1" height="1"/>
    <rect x="16" y="1" width="1" height="1"/>
    <rect x="19" y="1" width="1" height="1"/>
    <rect x="8" y="2" width="1" height="1"/>
    <rect x="10" y="2" width="1" height="1"/>
    <rect x="13" y="2" width="1" height="1"/>
    <rect x="19" y="2" width="1" height="1"/>
    <rect x="20" y="2" width="1" height="1"/>
    <rect x="9" y="3" width="1" height="1"/>
    <rect x="11" y="3" width="1" height="1"/>
    <rect x="12" y="3" width="1" height="1"/>
    <rect x="13" y="3" width="1" height="1"/>
    <rect x="15" y="3" width="1" height="1"/>
    <rect x="16" y="3" width="1" height="1"/>
    <rect x="17" y="3" width="1" height="1"/>
    <rect x="19" y="3" width="1" height="1"/>
    <rect x="20" y="3" width="1" height="1"/>
    <rect x="9" y="4" width="1" height="1"/>
    <rect x="15" y="4" width="1" height="1"/>
    <rect x="19" y="4" width="1" height="1"/>
    <rect x="20" y="4" width="1" height="1"/>
    <rect x="8" y="5" width="1" height="1"/>
    <rect x="9" y="5" width="1" height="1"/>
    <rect x="12" y="5" width="1" height="1"/>
    <rect x="13" y="5" width="1" height="1"/>
    <rect x="14" y="5" width="1" height="1"/>
    <rect x="18" y="5" width="1" height="1"/>
    <rect x="20" y="5" width="1" height="1"/>
    <rect x="8" y="6" width="1" height="1"/>
    <rect x="10" y="6" width="1" height="1"/>
    <rect x="12" y="6" width="1" height="1"/>
    <rect x="14" y="6" width="1" height="1"/>
    <rect x="16" y="6" width="1" height="1"/>
    <rect x="18" y="6" width="1" height="1"/>
    <rect x="20" y="6" width="1" height="1"/>
    <rect x="8" y="7" width="1" height="1"/>
    <rect x="9" y="7" width="1" height="1"/>
    <rect x="11" y="7" width="1" height="1"/>
    <rect x="12" y="7" width="1" height="1"/>
    <rect x="2" y="8" width="1" height="1"/>
    <rect x="3" y="8" width="1" height="1"/>
    <rect x="4" y="8" width="1" height="1"/>
    <rect x="6" y="8" width="1" height="1"/>
    <rect x="8" y="8" width="1" height="1"/>
    <rect x="9" y="8" width="1" height="1"/>
    <rect x="12" y="8" width="1" height="1"/>
    <rect x="15" y="8" width="1" height="1"/>
    <rect x="16" y="8" width="1" height="1"/>
    <rect x="18" y="8" width="1" height="1"/>
    <rect x="20" y="8" width="1" height="1"/>
    <rect x="21" y="8" width="1" height="1"/>
    <rect x="22" y="8" width="1" height="1"/>
    <rect x="23" y="8" width="1" height="1"/>
    <rect x="26" y="8" width="1" height="1"/>
    <rect x="27" y="8" width="1" height="1"/>
    <rect x="28" y="8" width="1" height="1"/>
    <rect x="2" y="9" width="1" height="1"/>
    <rect x="3" y="9" width="1" height="1"/>
    <rect x="4" y="9" width="1" height="1"/>
    <rect x="5" y="9" width="1" height="1"/>
    <rect x="7" y="9" width="1" height="1"/>
    <rect x="8" y="9" width="1" height="1"/>
    <rect x="9" y="9" width="1" height="1"/>
    <rect x="11" y="9" width="1" height="1"/>
    <rect x="14" y="9" width="1" height="1"/>
    <rect x="16" y="9" width="1" height="1"/>
    <rect x="17" y="9" width="1" height="1"/>
    <rect x="21" y="9" width="1" height="1"/>
    <rect x="22" y="9" width="1" height="1"/>
    <rect x="23" y="9" width="1" height="1"/>
    <rect x="24" y="9" width="1" height="1"/>
    <rect x="28" y="9" width="1" height="1"/>
    <rect x="0" y="10" width="1" height="1"/>
    <rect x="2" y="10" width="1" height="1"/>
    <rect x="5" y="10" width="1" height="1"/>
    <rect x="6" y="10" width="1" height="1"/>
    <rect x="8" y="10" width="1" height="1"/>
    <rect x="10" y="10" width="1" height="1"/>
    <rect x="13" y="10" width="1" height="1"/>
    <rect x="18" y="10" width="1" height="1"/>
    <rect x="20" y="10" width="1" height="1"/>
    <rect x="21" y="10" width="1" height="1"/>
    <rect x="22" y="10" width="1" height="1"/>
    <rect x="25" y="10" width="1" height="1"/>
    <rect x="0" y="11" width="1" height="1"/>
    <rect x="1" y="11" width="1" height="1"/>
    <rect x="2" y="11" width="1" height="1"/>
    <rect x="4" y="11" width="1" height="1"/>
    <rect x="7" y="11" width="1" height="1"/>
    <rect x="12" y="11" width="1" height="1"/>
    <rect x="13" y="11" width="1" height="1"/>
    <rect x="14" y="11" width="1" height="1"/>
    <rect x="15" y="11" width="1" height="1"/>
    <rect x="17" y="11" width="1" height="1"/>
    <rect x="18" y="11" width="1" height="1"/>
    <rect x="21" y="11" width="1" height="1"/>
    <rect x="22" y="11" width="1" height="1"/>
    <rect x="23" y="11" width="1" height="1"/>
    <rect x="25" y="11" width="1" height="1"/>
    <rect x="27" y="11" width="1" height="1"/>
    <rect x="0" y="12" width="1" height="1"/>
    <rect x="3" y="12" width="1" height="1"/>
    <rect x="4" y="12" width="1" height="1"/>
    <rect x="5" y="12" width="1" height="1"/>
    <rect x="6" y="12" width="1" height="1"/>
    <rect x="17" y="12" width="1" height="1"/>
    <rect x="21" y="12" width="1" height="1"/>
    <rect x="23" y="12" width="1" height="1"/>
    <rect x="26" y="12" width="1" height="1"/>
    <rect x="27" y="12" width="1" height="1"/>
    <rect x="28" y="12" width="1" height="1"/>
    <rect x="0" y="13" width="1" height="1"/>
    <rect x="5" y="13" width="1" height="1"/>
    <rect x="7" y="13" width="1" height="1"/>
    <rect x="8" y="13" width="1" height="1"/>
    <rect x="9" y="13" width="1" height="1"/>
    <rect x="10" y="13" width="1" height="1"/>
    <rect x="17" y="13" width="1" height="1"/>
    <rect x="18" y="13" width="1" height="1"/>
    <rect x="19" y="13" width="1" height="1"/>
    <rect x="20" y="13" width="1" height="1"/>
    <rect x="21" y="13" width="1" height="1"/>
    <rect x="22" y="13" width="1" height="1"/>
    <rect x="24" y="13" width="1" height="1"/>
    <rect x="25" y="13" width="1" height="1"/>
    <rect x="27" y="13" width="1" height="1"/>
    <rect x="28" y="13" width="1" height="1"/>
    <rect x="0" y="14" width="1" height="1"/>
    <rect x="2" y="14" width="1" height="1"/>
    <rect x="3" y="14" width="1" height="1"/>
    <rect x="5" y="14" width="1" height="1"/>
    <rect x="6" y="14" width="1" height="1"/>
    <rect x="7" y="14" width="1" height="1"/>
    <rect x="9" y="14" width="1" height="1"/>
    <rect x="10" y="14" width="1" height="1"/>
    <rect x="17" y="14" width="1" height="1"/>
    <rect x="18" y="14" width="1" height="1"/>
    <rect x="23" y="14" width="1" height="1"/>
    <rect x="1" y="15" width="1" height="1"/>
    <rect x="2" y="15" width="1" height="1"/>
    <rect x="5" y="15" width="1" height="1"/>
    <rect x="9" y="15" width="1" height="1"/>
    <rect x="17" y="15" width="1" height="1"/>
    <rect x="18" y="15" width="1" height="1"/>
    <rect x="21" y="15" width="1" height="1"/>
    <rect x="22" y="15" width="1" height="1"/>
    <rect x="24" y="15" width="1" height="1"/>
    <rect x="25" y="15" width="1" height="1"/>
    <rect x="6" y="16" width="1" height="1"/>
    <rect x="8" y="16" width="1" height="1"/>
    <rect x="10" y="16" width="1" height="1"/>
    <rect x="11" y="16" width="1" height="1"/>
    <rect x="17" y="16" width="1" height="1"/>
    <rect x="25" y="16" width="1" height="1"/>
    <rect x="26" y="16" width="1" height="1"/>
    <rect x="0" y="17" width="1" height="1"/>
    <rect x="1" y="17" width="1" height="1"/>
    <rect x="2" y="17" width="1" height="1"/>
    <rect x="3" y="17" width="1" height="1"/>
    <rect x="8" y="17" width="1" height="1"/>
    <rect x="9" y="17" width="1" height="1"/>
    <rect x="10" y="17" width="1" height="1"/>
    <rect x="13" y="17" width="1" height="1"/>
    <rect x="14" y="17" width="1" height="1"/>
    <rect x="20" y="17" width="1" height="1"/>
    <rect x="21" y="17" width="1" height="1"/>
    <rect x="22" y="17" width="1" height="1"/>
    <rect x="23" y="17" width="1" height="1"/>
    <rect x="24" y="17" width="1" height="1"/>
    <rect x="26" y="17" width="1" height="1"/>
    <rect x="27" y="17" width="1" height="1"/>
    <rect x="28" y="17" width="1" height="1"/>
    <rect x="0" y="18" width="1" height="1"/>
    <rect x="3" y="18" width="1" height="1"/>
    <rect x="4" y="18" width="1" height="1"/>
    <rect x="5" y="18" width="1" height="1"/>
    <rect x="6" y="18" width="1" height="1"/>
    <rect x="7" y="18" width="1" height="1"/>
    <rect x="8" y="18" width="1" height="1"/>
    <rect x="10" y="18" width="1" height="1"/>
    <rect x="12" y="18" width="1" height="1"/>
    <rect x="15" y="18" width="1" height="1"/>
    <rect x="16" y="18" width="1" height="1"/>
    <rect x="18" y="18" width="1" height="1"/>
    <rect x="19" y="18" width="1" height="1"/>
    <rect x="22" y="18" width="1" height="1"/>
    <rect x="23" y="18" width="1" height="1"/>
    <rect x="24" y="18" width="1" height="1"/>
    <rect x="25" y="18" width="1" height="1"/>
    <rect x="0" y="19" width="1" height="1"/>
    <rect x="4" y="19" width="1" height="1"/>
    <rect x="7" y="19" width="1" height="1"/>
    <rect x="8" y="19" width="1" height="1"/>
    <rect x="10" y="19" width="1" height="1"/>
    <rect x="12" y="19" width="1" height="1"/>
    <rect x="13" y="19" width="1" height="1"/>
    <rect x="15" y="19" width="1" height="1"/>
    <rect x="17" y="19" width="1" height="1"/>
    <rect x="19" y="19" width="1" height="1"/>
    <rect x="20" y="19" width="1" height="1"/>
    <rect x="22" y="19" width="1" height="1"/>
    <rect x="27" y="19" width="1" height="1"/>
    <rect x="0" y="20" width="1" height="1"/>
    <rect x="2" y="20" width="1" height="1"/>
    <rect x="3" y="20" width="1" height="1"/>
    <rect x="4" y="20" width="1" height="1"/>
    <rect x="6" y="20" width="1" height="1"/>
    <rect x="7" y="20" width="1" height="1"/>
    <rect x="8" y="20" width="1" height="1"/>
    <rect x="9" y="20" width="1" height="1"/>
    <rect x="12" y="20" width="1" height="1"/>
    <rect x="14" y="20" width="1" height="1"/>
    <rect x="15" y="20" width="1" height="1"/>
    <rect x="16" y="20" width="1" height="1"/>
    <rect x="18" y="20" width="1" height="1"/>
    <rect x="19" y="20" width="1" height="1"/>
    <rect x="20" y="20" width="1" height="1"/>
    <rect x="21" y="20" width="1" height="1"/>
    <rect x="22" y="20" width="1" height="1"/>
    <rect x="23" y="20" width="1" height="1"/>
    <rect x="24" y="20" width="1" height="1"/>
    <rect x="26" y="20" width="1" height="1"/>
    <rect x="8" y="21" width="1" height="1"/>
    <rect x="9" y="21" width="1" height="1"/>
    <rect x="11" y="21" width="1" height="1"/>
    <rect x="12" y="21" width="1" height="1"/>
    <rect x="13" y="21" width="1" height="1"/>
    <rect x="17" y="21" width="1" height="1"/>
    <rect x="19" y="21" width="1" height="1"/>
    <rect x="20" y="21" width="1" height="1"/>
    <rect x="24" y="21" width="1" height="1"/>
    <rect x="25" y="21" width="1" height="1"/>
    <rect x="27" y="21" width="1" height="1"/>
    <rect x="28" y="21" width="1" height="1"/>
    <rect x="13" y="22" width="1" height="1"/>
    <rect x="14" y="22" width="1" height="1"/>
    <rect x="16" y="22" width="1" height="1"/>
    <rect x="17" y="22" width="1" height="1"/>
    <rect x="18" y="22" width="1" height="1"/>
    <rect x="19" y="22" width="1" height="1"/>
    <rect x="20" y="22" width="1" height="1"/>
    <rect x="22" y="22" width="1" height="1"/>
    <rect x="24" y="22" width="1" height="1"/>
    <rect x="9" y="23" width="1" height="1"/>
    <rect x="12" y="23" width="1" height="1"/>
    <rect x="14" y="23" width="1" height="1"/>
    <rect x="15" y="23" width="1" height="1"/>
    <rect x="19" y="23" width="1" height="1"/>
    <rect x="20" y="23" width="1" height="1"/>
    <rect x="24" y="23" width="1" height="1"/>
    <rect x="25" y="23" width="1" height="1"/>
    <rect x="28" y="23" width="1" height="1"/>
    <rect x="8" y="24" width="1" height="1"/>
    <rect x="9" y="24" width="1" height="1"/>
    <rect x="11" y="24" width="1" height="1"/>
    <rect x="12" y="24" width="1" height="1"/>
    <rect x="14" y="24" width="1" height="1"/>
    <rect x="16" y="24" width="1" height="1"/>
    <rect x="18" y="24" width="1" height="1"/>
    <rect x="20" y="24" width="1" height="1"/>
    <rect x="21" y="24" width="1" height="1"/>
    <rect x="22" y="24" width="1" height="1"/>
    <rect x="23" y="24" width="1" height="1"/>
    <rect x="24" y="24" width="1" height="1"/>
    <rect x="25" y="24" width="1" height="1"/>
    <rect x="26" y="24" width="1" height="1"/>
    <rect x="27" y="24" width="1" height="1"/>
    <rect x="8" y="25" width="1" height="1"/>
    <rect x="9" y="25" width="1" height="1"/>
    <rect x="12" y="25" width="1" height="1"/>
    <rect x="13" y="25" width="1" height="1"/>
    <rect x="14" y="25" width="1" height="1"/>
    <rect x="15" y="25" width="1" height="1"/>
    <rect x="16" y="25" width="1" height="1"/>
    <rect x="17" y="25" width="1" height="1"/>
    <rect x="18" y="25" width="1" height="1"/>
    <rect x="19" y="25" width="1" height="1"/>
    <rect x="20" y="25" width="1" height="1"/>
    <rect x="21" y="25" width="1" height="1"/>
    <rect x="23" y="25" width="1" height="1"/>
    <rect x="25" y="25" width="1" height="1"/>
    <rect x="26" y="25" width="1" height="1"/>
    <rect x="8" y="26" width="1" height="1"/>
    <rect x="10" y="26" width="1" height="1"/>
    <rect x="15" y="26" width="1" height="1"/>
    <rect x="16" y="26" width="1" height="1"/>
    <rect x="17" y="26" width="1" height="1"/>
    <rect x="18" y="26" width="1" height="1"/>
    <rect x="19" y="26" width="1" height="1"/>
    <rect x="20" y="26" width="1" height="1"/>
    <rect x="21" y="26" width="1" height="1"/>
    <rect x="22" y="26" width="1" height="1"/>
    <rect x="23" y="26" width="1" height="1"/>
    <rect x="24" y="26" width="1" height="1"/>
    <rect x="26" y="26" width="1" height="1"/>
    <rect x="27" y="26" width="1" height="1"/>
    <rect x="9" y="27" width="1" height="1"/>
    <rect x="11" y="27" width="1" height="1"/>
    <rect x="13" y="27" width="1" height="1"/>
    <rect x="17" y="27" width="1" height="1"/>
    <rect x="22" y="27" width="1" height="1"/>
    <rect x="24" y="27" width="1" height="1"/>
    <rect x="25" y="27" width="1" height="1"/>
    <rect x="27" y="27" width="1" height="1"/>
    <rect x="11" y="28" width="1" height="1"/>
    <rect x="12" y="28" width="1" height="1"/>
    <rect x="14" y="28" width="1" height="1"/>
    <rect x="17" y="28" width="1" height="1"/>
    <rect x="18" y="28" width="1" height="1"/>
    <rect x="22" y="28" width="1" height="1"/>
    <rect x="24" y="28" width="1" height="1"/>
    <rect x="26" y="28" width="1" height="1"/>
  </g>
  <g transform="translate(0 0)">
    <rect x="0" y="0" width="7" height="7" rx="1.5" fill="#B85400"/>
    <rect x="1" y="1" width="5" height="5" rx="1" fill="#FFFFFF"/>
    <rect x="2" y="2" width="3" height="3" rx="0.5" fill="#B85400"/>
  </g>
  <g transform="translate(22 0)">
    <rect x="0" y="0" width="7" height="7" rx="1.5" fill="#B85400"/>
    <rect x="1" y="1" width="5" height="5" rx="1" fill="#FFFFFF"/>
    <rect x="2" y="2" width="3" height="3" rx="0.5" fill="#B85400"/>
  </g>
  <g transform="translate(0 22)">
    <rect x="0" y="0" width="7" height="7" rx="1.5" fill="#B85400"/>
    <rect x="1" y="1" width="5" height="5" rx="1" fill="#FFFFFF"/>
    <rect x="2" y="2" width="3" height="3" rx="0.5" fill="#B85400"/>
  </g>
  <rect x="12" y="12" width="5" height="5" fill="#B85400"/>
  <svg x="12.5" y="12.5" width="4" height="4" viewBox="0 0 654 654"><ellipse cx="327.5" cy="327" rx="166.5" ry="248" fill="white"/>
<path fill-rule="evenodd" clip-rule="evenodd" d="M633 327C633 497.104 495.104 635 325 635C154.896 635 17 497.104 17 327C17 156.896 154.896 19 325 19C495.104 19 633 156.896 633 327ZM211.04 194.56H288.04V468.68H211.04V194.56ZM432.8 194.561H355.8V468.681H432.8V194.561Z" fill="#FF9416"/></svg>
</svg>
