<?xml version="1.0" encoding="UTF-8"?>
<!--
  Design: ask-a-chicken (chest, English)
  Voice lane: B (a verified quote from a Nobel laureate)
  GENERATED by scripts/draw-chicken.py — edit there, not here.

  Layout (200 × 200 mm canvas):
    y=15..63    logo
    y=72..162   the hen (left, x 11..92) | justified quote column (right,
                x 98..186); the payoff lines are the accent
    y=172..181  attribution
-->
<svg xmlns="http://www.w3.org/2000/svg"
     viewBox="0 0 200 200"
     width="200mm" height="200mm"
     role="img"
     aria-label="If you want to know what life’s like when you’re not the apex intelligence, ask a chicken. — Geoffrey Hinton">
  <title>If you want to know what life’s like when you’re not the apex intelligence, ask a chicken. — Geoffrey Hinton</title>

  <svg x="25" y="8" width="150" height="55.48" viewBox="33 0 1214 449">
<rect x="130" y="155" width="125" height="145" fill="white"/>
<path fill-rule="evenodd" clip-rule="evenodd" d="M354.52 224.5C354.52 313.285 282.546 385.26 193.76 385.26C104.975 385.26 33 313.285 33 224.5C33 135.715 104.975 63.7397 193.76 63.7397C282.546 63.7397 354.52 135.715 354.52 224.5ZM134.28 155.374H174.47V298.45H134.28V155.374ZM250.028 155.374H209.838V298.45H250.028V155.374Z" fill="#FF9416"/>
<path d="M1023.21 295.433L1084.48 155.018H1130.94L1192.21 295.433H1143.35L1098.1 177.485H1116.52L1071.27 295.433H1023.21ZM1059.66 270.961L1071.67 236.86H1136.14L1148.16 270.961H1059.66Z" fill="#FF9416"/>
<path d="M1199.75 295.433V155.018H1247V295.433H1199.75Z" fill="#FF9416"/>
<path d="M307.978 295.161V155.29H375.474C388.56 155.29 399.842 157.422 409.323 161.684C418.936 165.947 426.347 172.075 431.554 180.067C436.762 187.927 439.365 197.252 439.365 208.042C439.365 218.832 436.762 228.156 431.554 236.016C426.347 243.875 418.936 250.003 409.323 254.399C399.842 258.662 388.56 260.793 375.474 260.793H334.216L355.246 240.612V295.161H307.978ZM355.246 245.807L334.216 224.427H372.47C379.013 224.427 383.82 222.961 386.891 220.031C390.095 217.1 391.698 213.104 391.698 208.042C391.698 202.98 390.095 198.983 386.891 196.053C383.82 193.122 379.013 191.657 372.47 191.657H334.216L355.246 170.276V245.807Z" fill="black"/>
<path d="M432.604 295.161L493.892 155.29H540.358L601.645 295.161H552.775L507.511 177.67H525.937L480.673 295.161H432.604ZM469.056 270.784L481.073 236.815H545.565L557.582 270.784H469.056Z" fill="black"/>
<path d="M673.35 298.358C651.853 298.358 635.096 292.564 623.079 280.974C611.062 269.385 605.053 253.133 605.053 232.219V155.29H652.32V230.821C652.32 241.477 654.257 249.07 658.129 253.6C662.001 257.996 667.208 260.194 673.751 260.194C680.427 260.194 685.635 257.996 689.373 253.6C693.245 249.07 695.181 241.477 695.181 230.821V155.29H741.648V232.219C741.648 253.133 735.639 269.385 723.622 280.974C711.605 292.564 694.848 298.358 673.35 298.358Z" fill="black"/>
<path d="M815.589 298.358C803.839 298.358 792.489 297.026 781.54 294.362C770.591 291.698 761.579 288.234 754.502 283.972L769.724 249.603C776.4 253.466 783.81 256.597 791.955 258.995C800.234 261.259 808.245 262.392 815.99 262.392C820.529 262.392 824.068 262.125 826.605 261.592C829.275 260.926 831.211 260.06 832.413 258.995C833.615 257.796 834.216 256.397 834.216 254.799C834.216 252.268 832.813 250.269 830.009 248.804C827.206 247.339 823.467 246.14 818.794 245.207C814.254 244.142 809.247 243.076 803.772 242.01C798.298 240.811 792.756 239.28 787.148 237.415C781.674 235.55 776.6 233.085 771.927 230.021C767.387 226.958 763.715 222.961 760.911 218.032C758.107 212.97 756.705 206.71 756.705 199.25C756.705 190.591 759.108 182.732 763.915 175.672C768.856 168.478 776.133 162.75 785.746 158.487C795.494 154.225 807.578 152.093 821.998 152.093C831.478 152.093 840.825 153.092 850.038 155.09C859.251 157.089 867.53 160.152 874.873 164.282L860.653 198.451C853.71 194.987 846.967 192.389 840.424 190.658C834.015 188.926 827.74 188.06 821.597 188.06C817.058 188.06 813.453 188.46 810.782 189.259C808.112 190.058 806.176 191.124 804.974 192.456C803.906 193.788 803.372 195.253 803.372 196.852C803.372 199.25 804.774 201.181 807.578 202.647C810.382 203.979 814.053 205.111 818.593 206.044C823.267 206.976 828.34 207.975 833.815 209.041C839.423 210.106 844.964 211.572 850.439 213.437C855.913 215.302 860.92 217.766 865.46 220.83C870.133 223.894 873.872 227.89 876.676 232.819C879.48 237.748 880.882 243.875 880.882 251.202C880.882 259.727 878.412 267.587 873.471 274.78C868.665 281.84 861.454 287.568 851.841 291.964C842.227 296.227 830.143 298.358 815.589 298.358Z" fill="black"/>
<path d="M938.209 207.242H1000.7V241.211H938.209V207.242ZM941.414 259.594H1011.51V295.161H894.947V155.29H1008.91V190.858H941.414V259.594Z" fill="black"/>
</svg>

  <g id="hen" transform="scale(0.05)">
    <g id="hen-body" fill="#111111" stroke="none" transform="translate(0.000000,4000.000000) scale(1.000000,-1.000000)"><path d="M651 2608 c-4 -1 -7 -3 -12 -7 -5 -6 -6 -7 -11 -23 -11 -31 -17 -47 -20 -53 -1 -2 -2 -6 -3 -8 -1 -3 -4 -11 -7 -17 -3 -6 -6 -14 -7 -17 -3 -10 -6 -17 -10 -26 -2 -5 -6 -14 -9 -20 -2 -7 -5 -15 -7 -17 -1 -3 -3 -8 -4 -12 -1 -4 -4 -13 -6 -19 -2 -6 -5 -14 -6 -18 -2 -7 -6 -20 -9 -27 -2 -5 -3 -9 -7 -30 -1 -5 -2 -11 -3 -13 0 -3 -2 -13 -4 -22 -1 -10 -2 -20 -3 -22 -2 -7 -4 -57 -3 -72 1 -7 2 -20 2 -28 1 -9 1 -16 1 -16 1 0 2 -9 3 -19 1 -9 3 -23 5 -29 1 -7 4 -20 6 -29 8 -42 33 -128 53 -180 3 -8 6 -18 8 -22 1 -4 4 -13 6 -19 2 -6 4 -12 5 -13 0 0 5 5 12 13 19 22 55 57 67 65 3 2 5 3 5 4 0 0 -2 4 -4 9 -27 61 -61 151 -72 193 -4 15 -14 59 -17 75 -2 12 -4 47 -4 64 0 29 6 83 12 114 1 5 3 16 6 29 3 15 20 85 21 87 2 4 9 3 11 -1 0 -2 -2 -10 -4 -19 -2 -10 -4 -18 -4 -19 0 -2 -1 -4 -1 -6 -1 -1 -3 -7 -3 -12 -1 -5 -4 -18 -6 -27 -11 -45 -19 -105 -19 -146 0 -35 8 -94 16 -121 0 -2 3 -10 5 -17 5 -20 28 -85 37 -107 4 -11 14 -35 22 -54 7 -19 14 -34 14 -34 0 0 2 1 4 2 1 2 8 6 15 11 6 4 12 8 13 9 0 1 3 2 4 3 2 1 6 3 9 5 9 6 24 14 35 20 l11 6 -18 34 c-31 62 -52 107 -64 138 -9 26 -15 44 -20 62 -1 4 -3 11 -5 16 -2 9 -5 25 -6 43 -1 6 -2 17 -2 25 -2 16 -2 68 0 86 1 6 1 18 2 26 0 7 2 22 2 32 4 39 5 58 6 68 2 90 3 84 -7 95 -9 9 -20 11 -31 7z M431 2528 c-11 -3 -21 -17 -21 -28 0 -3 -2 -18 -5 -30 0 -3 -1 -10 -2 -15 -1 -5 -2 -12 -3 -15 -1 -4 -2 -11 -3 -16 -1 -5 -2 -11 -3 -14 -3 -12 -5 -20 -6 -28 0 -4 -2 -11 -3 -15 -2 -4 -3 -12 -4 -17 -1 -11 -2 -17 -4 -24 -1 -3 -2 -10 -3 -16 -1 -6 -1 -12 -2 -14 0 -3 -2 -8 -2 -11 -1 -4 -2 -12 -2 -17 0 -6 -1 -13 -1 -16 -2 -11 -3 -64 -2 -70 1 -4 1 -14 2 -23 1 -15 1 -20 4 -31 2 -7 4 -16 4 -18 2 -10 4 -19 10 -34 3 -9 6 -19 7 -22 1 -4 5 -14 9 -23 4 -8 9 -20 12 -26 3 -6 7 -14 10 -19 2 -4 7 -13 11 -19 3 -6 8 -16 12 -21 3 -5 9 -14 13 -20 8 -13 15 -23 25 -36 4 -6 8 -13 10 -16 2 -2 7 -9 11 -15 8 -10 11 -14 24 -31 3 -5 9 -13 13 -17 4 -5 11 -14 15 -20 5 -7 10 -13 12 -14 l3 -3 4 7 c2 4 5 9 7 11 1 2 5 7 8 12 l5 8 -4 12 c-2 6 -8 22 -12 34 -4 12 -9 27 -11 32 -2 5 -5 13 -7 19 -1 5 -4 15 -7 23 -3 8 -6 16 -6 18 -1 2 -3 9 -5 16 -2 7 -6 20 -9 29 -5 20 -4 19 -12 29 -7 10 -28 41 -35 54 -3 5 -6 11 -7 12 -1 2 -2 3 -2 4 0 0 -3 6 -6 13 -13 27 -23 55 -27 82 -1 5 -3 13 -4 18 -3 17 -7 71 -7 109 0 57 1 84 3 86 3 3 7 2 9 0 2 -2 2 -3 1 -23 -1 -39 0 -106 1 -128 6 -65 22 -119 49 -166 12 -21 22 -36 23 -36 0 1 -1 6 -2 12 -7 31 -14 75 -15 100 -1 5 -2 16 -2 23 -1 16 1 67 4 78 2 12 5 35 4 38 -1 2 -2 7 -2 12 -1 4 -2 14 -4 21 -2 6 -3 14 -3 16 0 3 -1 8 -2 13 -1 4 -2 12 -3 17 -1 9 -4 24 -7 39 0 3 -1 9 -2 12 -1 9 -7 34 -12 53 -2 10 -4 19 -5 21 -2 19 -22 30 -39 24z M1460 2486 c-22 -3 -62 -15 -61 -19 1 -2 -14 -10 -16 -9 -3 3 -50 -40 -50 -45 0 -2 -2 -7 -6 -12 -31 -46 -39 -103 -22 -158 l3 -8 -4 -6 c-2 -3 -6 -10 -9 -15 -3 -5 -7 -13 -9 -16 -3 -4 -7 -11 -9 -15 -2 -4 -7 -13 -11 -20 -4 -7 -12 -21 -17 -31 -6 -9 -15 -25 -20 -34 -5 -10 -11 -20 -13 -23 -1 -4 -6 -12 -10 -19 -5 -6 -11 -17 -14 -24 -3 -6 -7 -14 -9 -17 -4 -6 -4 -6 -11 -5 -4 1 -8 1 -9 2 -5 2 -73 7 -93 7 -22 0 -69 -4 -90 -7 -23 -4 -33 -5 -39 -7 -4 -1 -14 -3 -21 -5 -45 -10 -88 -27 -135 -52 -36 -20 -59 -34 -90 -60 -23 -18 -71 -69 -82 -87 -1 -3 -4 -7 -6 -9 -10 -13 -35 -58 -41 -75 -1 -2 -3 -6 -4 -9 -16 -31 -28 -103 -24 -149 2 -23 11 -62 19 -80 25 -56 46 -84 91 -120 11 -9 34 -25 40 -28 3 -1 9 -5 14 -8 11 -7 37 -18 53 -24 7 -2 15 -5 18 -6 3 -1 9 -3 12 -3 7 -2 20 -5 31 -8 7 -2 23 -5 40 -8 6 0 15 -2 20 -3 20 -3 32 -3 74 -3 41 0 42 0 77 3 19 2 37 5 41 5 17 3 72 13 79 16 5 1 12 3 17 4 33 7 115 38 149 56 34 17 76 43 91 55 2 3 6 6 8 7 35 24 80 73 103 113 8 14 19 34 21 40 0 3 2 8 3 10 12 23 19 66 18 103 -1 22 -1 22 -7 22 -25 0 -55 18 -45 28 3 3 6 2 10 -2 7 -8 20 -13 30 -13 7 0 8 0 8 2 -1 1 -3 9 -5 19 -2 9 -5 20 -7 24 -3 8 -15 33 -19 40 -10 15 -16 24 -23 33 l-7 10 -7 -1 c-7 0 -23 2 -23 3 5 11 4 10 12 10 l7 0 -5 5 c-3 3 -5 6 -5 7 0 2 7 23 12 34 2 6 6 16 8 22 2 6 5 15 7 21 3 5 6 15 9 23 2 7 8 23 12 36 18 51 16 45 14 53 -6 18 -2 40 10 55 3 4 3 4 1 7 -8 12 -10 37 -4 53 7 21 23 36 44 44 15 5 40 3 53 -5 3 -2 3 -2 4 -1 2 3 8 15 11 22 1 3 3 7 3 7 1 0 0 1 0 2 -1 1 -4 1 -13 0 -21 -3 -30 2 -32 15 -1 6 0 24 2 38 1 5 1 9 0 13 -2 12 -3 36 -2 43 2 14 11 17 32 14 7 -1 11 -1 12 -1 1 1 1 2 0 2 0 0 -3 5 -5 10 -8 19 -20 37 -36 53 -6 6 -10 11 -10 12 2 3 -32 25 -51 34 -21 8 -65 17 -65 13 0 -2 -1 -2 -9 -2 -8 0 -10 0 -9 2 0 0 0 1 -1 1 0 0 -4 -1 -8 -1z m79 -91 c45 -14 58 -70 25 -103 -28 -29 -77 -23 -97 12 -21 36 -1 83 40 93 9 1 23 1 32 -2z m-194 -290 c3 -3 3 -5 0 -17 -2 -5 -4 -18 -6 -29 -2 -11 -5 -26 -7 -33 -2 -7 -5 -23 -7 -35 -3 -14 -5 -23 -6 -24 -2 -3 -4 -2 -6 0 -2 2 -2 3 2 28 3 15 6 35 8 45 2 10 4 26 6 36 2 9 3 19 4 21 1 9 7 12 12 8z m52 0 c3 -3 3 -5 0 -17 -2 -5 -4 -18 -6 -29 -2 -11 -5 -26 -7 -33 -2 -7 -5 -23 -7 -35 -3 -14 -5 -23 -6 -24 -2 -3 -4 -2 -6 0 -2 2 -2 3 2 28 3 15 6 35 8 45 2 10 4 26 6 36 2 9 3 19 4 21 1 9 7 12 12 8z m52 0 c3 -3 3 -5 0 -17 -2 -5 -4 -18 -6 -29 -2 -11 -5 -26 -7 -33 -2 -7 -5 -23 -7 -35 -3 -14 -5 -23 -6 -24 -2 -3 -4 -2 -6 0 -2 2 -2 3 2 28 3 15 6 35 8 45 2 10 4 26 6 36 2 9 3 19 4 21 1 9 7 12 12 8z m52 0 c3 -3 3 -5 0 -17 -2 -5 -4 -18 -6 -29 -2 -11 -5 -26 -7 -33 -2 -7 -5 -23 -7 -35 -3 -14 -5 -23 -6 -24 -2 -3 -4 -2 -6 0 -2 2 -2 3 2 28 3 15 6 35 8 45 2 10 4 26 6 36 2 9 3 19 4 21 1 9 7 12 12 8z m-480 -191 c4 0 11 -1 16 -2 27 -3 47 -7 64 -13 5 -1 11 -3 13 -4 l5 -1 -2 -7 c-1 -4 -2 -8 -3 -11 -1 -4 -1 -4 -7 -2 -7 2 -21 6 -28 8 -10 3 -49 9 -66 11 -21 1 -61 1 -83 0 -18 -2 -69 -9 -78 -11 -3 -1 -9 -3 -13 -4 -11 -2 -43 -11 -47 -13 -2 -1 -6 -3 -9 -3 -14 -4 -61 -27 -78 -38 -17 -11 -37 -25 -38 -28 -1 -1 -3 -4 -6 -6 -7 -5 -24 -24 -32 -34 -26 -33 -41 -81 -38 -116 1 -15 3 -24 4 -30 1 -3 3 -7 3 -10 8 -27 29 -60 51 -81 4 -3 8 -8 11 -10 10 -10 33 -24 48 -30 4 -2 9 -4 11 -5 3 -2 17 -7 31 -10 4 -2 11 -4 14 -4 5 -2 18 -4 39 -6 24 -3 74 1 108 8 11 2 47 13 59 18 7 3 14 5 14 5 2 0 53 26 60 30 20 13 27 17 38 25 4 3 11 8 15 11 16 12 56 50 65 63 1 1 5 7 9 11 4 5 8 11 10 15 2 3 6 9 9 13 3 4 8 13 11 20 3 6 6 12 7 12 0 1 19 -8 19 -9 0 -3 -18 -36 -25 -45 -11 -17 -18 -26 -36 -46 l-9 -10 8 0 c10 0 23 5 30 13 4 4 7 5 10 2 3 -3 2 -6 -1 -11 -11 -12 -37 -20 -54 -16 -5 1 -7 -1 -20 -13 -3 -3 -9 -8 -13 -11 -4 -3 -10 -8 -14 -11 -4 -3 -8 -6 -11 -8 -2 -1 -10 -7 -17 -12 -8 -5 -14 -9 -15 -9 0 0 -4 -2 -8 -5 -10 -6 -43 -22 -59 -29 -4 -1 -11 -4 -15 -6 -5 -2 -14 -5 -21 -7 -7 -2 -14 -4 -16 -5 -3 -1 -5 -2 -7 -2 -1 0 -5 -1 -7 -2 -3 -1 -8 -2 -11 -2 -3 -1 -7 -2 -9 -2 -4 -1 -17 -3 -35 -6 -30 -3 -87 -2 -105 3 -2 1 -7 2 -9 3 -3 0 -8 1 -10 2 -3 1 -6 2 -7 2 -2 0 -9 2 -22 7 -3 1 -9 3 -13 5 -4 2 -11 5 -15 7 -4 2 -8 4 -8 4 -1 0 -8 4 -21 14 -24 17 -45 38 -60 62 -9 13 -24 44 -24 49 0 1 -1 3 -2 5 0 2 -2 8 -3 12 -7 38 -6 63 6 99 4 15 15 38 21 45 1 3 3 5 3 6 0 0 1 2 3 5 2 2 6 7 9 11 9 12 38 40 53 51 6 5 30 21 30 21 1 0 5 2 9 5 5 3 8 5 8 5 1 0 5 2 11 5 6 3 11 5 12 5 0 0 3 1 5 3 2 1 7 3 10 4 3 1 8 4 12 5 17 8 64 22 80 24 2 1 7 2 10 3 5 1 24 4 49 7 27 4 97 5 117 2z m59 -111 c3 -3 4 -6 13 -41 4 -15 10 -41 15 -57 4 -16 8 -31 8 -34 1 -3 1 -4 0 -6 -5 -5 -8 -2 -12 14 -2 7 -5 16 -7 20 -1 4 -5 19 -9 33 -4 13 -8 28 -9 32 -4 9 -10 32 -10 34 0 3 4 7 7 7 1 0 3 -1 4 -2z m-104 -32 c3 -3 4 -6 13 -41 4 -15 10 -41 15 -57 4 -16 8 -31 8 -34 1 -3 1 -4 0 -6 -5 -5 -8 -2 -12 14 -2 7 -5 16 -7 20 -1 4 -5 19 -9 33 -4 13 -8 28 -9 32 -4 9 -10 32 -10 34 0 3 4 7 7 7 1 0 3 -1 4 -2z m-104 -32 c3 -3 4 -6 13 -41 4 -15 10 -41 15 -57 4 -16 8 -31 8 -34 1 -3 1 -4 0 -6 -5 -5 -8 -2 -12 14 -2 7 -5 16 -7 20 -1 4 -5 19 -9 33 -4 13 -8 28 -9 32 -4 9 -10 32 -10 34 0 3 4 7 7 7 1 0 3 -1 4 -2z m623 -9 c10 -10 -20 -28 -45 -28 -15 0 -35 7 -43 17 l-3 3 4 4 c2 3 4 5 4 5 0 0 2 -1 4 -4 2 -3 6 -5 12 -8 9 -4 9 -4 22 -4 13 0 13 0 22 4 6 3 10 5 13 9 4 4 7 5 10 2z m-727 -23 c3 -3 4 -6 13 -41 4 -15 10 -41 15 -57 4 -16 8 -31 8 -34 1 -3 1 -4 0 -6 -5 -5 -8 -2 -12 14 -2 7 -5 16 -7 20 -1 4 -5 19 -9 33 -4 13 -8 28 -9 32 -4 9 -10 32 -10 34 0 3 4 7 7 7 1 0 3 -1 4 -2z m-104 -32 c3 -3 4 -6 13 -41 4 -15 10 -41 15 -57 4 -16 8 -31 8 -34 1 -3 1 -4 0 -6 -5 -5 -8 -2 -12 14 -2 7 -5 16 -7 20 -1 4 -5 19 -9 33 -4 13 -8 28 -9 32 -4 9 -10 32 -10 34 0 3 4 7 7 7 1 0 3 -1 4 -2z m561 -87 c3 -4 7 -6 13 -9 9 -4 9 -4 22 -4 13 0 13 0 22 4 6 3 10 5 13 9 4 4 7 5 10 2 10 -10 -20 -28 -45 -28 -25 0 -55 18 -45 28 3 3 6 2 10 -2z m100 0 c3 -4 7 -6 13 -9 9 -4 9 -4 22 -4 13 0 13 0 22 4 6 3 10 5 13 9 4 4 7 5 10 2 10 -10 -20 -28 -45 -28 -25 0 -55 18 -45 28 3 3 6 2 10 -2z m100 0 c3 -4 7 -6 13 -9 9 -4 9 -4 22 -4 13 0 13 0 22 4 6 3 10 5 13 9 4 4 7 5 10 2 10 -10 -20 -28 -45 -28 -25 0 -55 18 -45 28 3 3 6 2 10 -2z m-290 -140 c3 -4 7 -6 13 -9 9 -4 9 -4 22 -4 13 0 13 0 22 4 6 3 10 5 13 9 4 4 7 5 10 2 10 -10 -20 -28 -45 -28 -25 0 -55 18 -45 28 3 3 6 2 10 -2z m100 0 c3 -4 7 -6 13 -9 9 -4 9 -4 22 -4 13 0 13 0 22 4 6 3 10 5 13 9 4 4 7 5 10 2 10 -10 -20 -28 -45 -28 -25 0 -55 18 -45 28 3 3 6 2 10 -2z m100 0 c3 -4 7 -6 13 -9 9 -4 9 -4 22 -4 13 0 13 0 22 4 6 3 10 5 13 9 4 4 7 5 10 2 10 -10 -20 -28 -45 -28 -25 0 -55 18 -45 28 3 3 6 2 10 -2z M271 2328 c-8 -2 -17 -12 -19 -19 -2 -6 -2 -8 -1 -18 2 -20 3 -60 2 -107 -1 -21 0 -57 2 -87 0 -10 1 -21 5 -52 0 -4 2 -12 3 -16 2 -5 3 -14 4 -20 1 -7 3 -13 6 -19 2 -5 5 -13 7 -20 4 -14 6 -18 12 -29 3 -5 8 -14 11 -20 13 -25 48 -67 77 -91 33 -29 61 -49 91 -67 5 -3 13 -8 18 -12 5 -3 14 -8 18 -11 5 -2 14 -7 19 -10 9 -7 18 -11 18 -11 1 0 3 5 5 10 2 4 6 13 8 18 l5 10 -6 6 c-3 4 -11 14 -17 22 -7 9 -15 19 -18 23 -3 4 -8 11 -11 15 -2 3 -9 12 -15 19 -5 7 -12 17 -16 22 -3 4 -11 15 -16 24 -6 8 -12 15 -12 17 -1 1 -4 4 -8 6 -42 28 -76 67 -95 108 -20 41 -30 77 -42 140 -1 9 -3 17 -4 20 -1 5 -5 26 -5 28 0 3 3 6 6 6 5 0 6 -3 13 -41 2 -9 4 -21 6 -27 1 -7 3 -19 5 -26 2 -8 3 -15 4 -15 1 -1 1 -3 1 -4 0 -5 14 -48 22 -65 17 -38 41 -70 71 -95 6 -5 6 -5 2 2 -1 2 -5 9 -9 15 -3 6 -8 16 -12 22 -3 5 -7 13 -9 17 -1 3 -6 14 -10 24 -5 9 -11 25 -15 36 -3 10 -7 22 -9 27 -1 5 -3 12 -4 17 -1 4 -3 15 -5 24 -4 14 -4 19 -5 33 -1 10 -1 20 -2 24 -1 3 -1 14 0 27 0 22 0 22 -3 32 -2 5 -6 12 -7 15 -4 5 -12 24 -12 26 0 0 -2 3 -4 6 -1 3 -6 11 -9 17 -11 23 -24 30 -41 24z M231 2028 c-8 -2 -17 -12 -19 -19 -3 -9 -2 -15 3 -26 2 -5 4 -11 4 -13 1 -2 3 -8 5 -12 1 -4 4 -11 4 -15 1 -4 3 -10 5 -14 2 -4 3 -8 3 -9 0 -5 2 -13 5 -19 1 -3 3 -10 5 -16 1 -6 4 -13 5 -15 1 -3 3 -9 3 -14 1 -5 3 -11 6 -16 2 -5 4 -10 4 -12 2 -6 6 -16 9 -21 1 -2 3 -7 4 -10 3 -8 6 -15 12 -23 3 -4 7 -11 9 -15 2 -4 8 -12 13 -18 5 -6 10 -13 13 -16 9 -12 37 -36 50 -43 5 -2 11 -6 15 -9 9 -6 13 -7 28 -12 7 -3 15 -6 19 -8 6 -2 15 -4 31 -7 4 -1 10 -3 13 -3 3 -1 10 -3 15 -3 5 -1 13 -2 18 -3 4 0 8 -1 9 -1 0 0 1 5 1 11 1 5 3 14 5 20 1 5 3 13 4 17 1 3 3 9 4 12 1 3 2 5 2 6 0 0 -3 1 -6 3 -4 2 -10 6 -14 9 -5 2 -14 8 -20 11 -7 4 -17 10 -22 13 -7 5 -11 7 -12 6 -1 0 -3 0 -4 1 -1 1 -6 2 -12 3 -31 6 -55 19 -80 42 -5 5 -12 12 -14 15 -2 2 -4 5 -5 6 -3 2 -16 20 -18 24 -1 2 -4 6 -6 9 -2 2 -6 8 -8 13 -2 4 -6 10 -8 13 -4 7 -14 24 -21 38 -3 5 -6 12 -8 16 -2 3 -4 7 -4 7 0 1 -2 5 -4 10 -3 5 -6 13 -8 18 -1 4 -4 13 -7 20 -5 13 -6 19 -8 33 -3 15 -4 17 -9 18 -3 0 -7 -1 -9 -2z M342 1840 c18 -25 26 -34 47 -52 7 -5 14 -10 21 -14 11 -5 24 -10 25 -10 0 1 -11 9 -23 17 -6 4 -13 9 -16 12 -3 2 -11 9 -17 14 -13 10 -25 22 -34 31 -6 6 -6 6 -3 2z M1192 1283 c-11 -3 -35 -10 -43 -11 -3 -1 -3 -1 -3 -4 0 -1 2 -10 3 -19 2 -9 4 -24 6 -34 7 -39 17 -120 21 -155 3 -37 4 -49 7 -103 1 -13 2 -25 2 -27 1 -2 1 -14 2 -27 1 -13 2 -29 2 -37 l2 -13 -41 -4 c-48 -5 -45 -4 -49 -7 -12 -8 -10 -24 3 -30 3 -2 9 -2 12 -1 1 1 20 3 42 6 l40 4 4 -3 c7 -6 10 -6 20 -7 10 0 10 0 17 -4 4 -3 7 -5 7 -6 0 0 -77 0 -170 0 l-171 0 4 4 c4 4 6 9 5 14 -1 3 -4 3 38 1 25 -1 26 -1 32 6 6 6 5 15 -2 22 -5 5 -2 5 -50 6 -22 1 -40 1 -40 2 0 0 4 29 6 40 1 10 4 30 7 45 0 6 2 15 3 20 1 10 5 30 7 45 0 6 2 15 3 20 1 10 5 30 7 45 0 6 2 15 3 20 1 10 5 30 7 45 0 6 2 15 3 20 1 10 5 30 7 45 0 6 2 15 2 19 1 4 2 11 3 16 1 4 1 8 2 9 0 2 -1 2 -13 2 -8 0 -20 0 -29 1 -9 0 -16 1 -16 1 0 -1 -7 -45 -9 -58 -1 -9 -3 -22 -5 -29 -1 -8 -3 -23 -5 -33 -1 -10 -3 -25 -5 -32 -1 -8 -3 -23 -5 -33 -1 -10 -3 -25 -5 -32 -1 -8 -3 -23 -5 -33 -1 -10 -3 -25 -5 -32 -1 -8 -3 -23 -5 -33 -1 -10 -3 -26 -5 -35 -2 -10 -4 -24 -5 -31 -1 -11 -2 -13 -3 -14 -2 0 -21 -3 -43 -5 -47 -5 -44 -4 -48 -7 -12 -8 -10 -24 3 -30 3 -2 9 -2 12 -1 1 1 20 3 42 6 l40 4 4 -3 c7 -6 10 -6 20 -7 10 0 10 0 17 -5 l7 -4 -185 -1 c-201 -1 -187 0 -190 -6 -3 -5 -2 -12 3 -15 3 -2 1090 -2 1093 0 5 3 6 10 3 15 -3 6 11 6 -176 6 l-169 0 3 3 c4 4 6 9 6 14 l-1 4 19 -1 c46 -2 44 -2 49 2 9 7 9 19 0 26 -4 3 -4 3 -28 4 -14 1 -34 1 -45 2 l-20 1 -2 14 c0 8 -1 25 -2 37 -1 12 -1 25 -2 27 0 4 -1 15 -4 71 -3 31 -8 85 -10 102 -1 4 -2 13 -3 21 -1 16 -5 40 -8 61 -2 8 -4 21 -5 29 -3 19 -11 67 -11 68 0 0 -5 -1 -9 -3z"/></g>
    <g id="hen-accent" class="accent" fill="#FF9416" stroke="none" transform="translate(0.000000,4000.000000) scale(1.000000,-1.000000)"><path d="M1450 2593 c-32 -5 -57 -27 -66 -58 -2 -9 -2 -30 0 -39 3 -8 7 -18 11 -24 2 -2 4 -5 4 -5 0 -1 6 1 12 3 14 6 32 11 45 12 12 2 12 1 14 9 4 27 24 50 50 61 8 3 8 3 4 10 -11 14 -27 25 -44 29 -6 2 -25 3 -30 2z M1538 2539 c-23 -6 -41 -21 -48 -42 -4 -13 -4 -13 4 -13 37 -4 69 -16 97 -37 4 -4 9 -7 10 -8 2 -1 2 -1 5 3 12 20 12 49 -1 68 -15 22 -43 34 -67 29z M1357 2537 c-24 -6 -43 -23 -52 -47 -4 -11 -4 -30 0 -41 5 -14 15 -27 25 -34 l4 -3 3 4 c9 11 35 34 46 40 1 1 0 2 -2 6 -13 17 -20 47 -16 68 2 9 2 9 -8 7z M1623 2366 c-10 -2 -14 -6 -16 -17 -1 -7 0 -31 2 -43 1 -4 1 -8 0 -13 -2 -14 -3 -32 -2 -38 2 -10 6 -15 16 -17 7 -3 8 -3 22 -1 47 5 124 24 157 38 13 5 16 7 22 12 l7 6 -6 7 c-6 7 -7 8 -23 15 -28 14 -90 35 -123 44 -30 7 -47 9 -56 7z m96 -68 c66 -1 66 -1 66 -6 0 -5 0 -5 -57 -3 -29 1 -59 2 -66 2 -11 0 -14 0 -15 2 -4 3 -1 8 5 8 3 -1 33 -2 67 -3z M1592 2200 c-31 -8 -47 -39 -37 -68 3 -7 3 -7 12 -4 22 10 46 5 63 -13 l7 -7 4 4 c11 11 15 22 15 38 0 19 -8 34 -24 44 -11 7 -28 10 -40 6z M1578 2115 c-32 -9 -42 -47 -20 -70 25 -25 66 -12 72 22 5 30 -23 55 -52 48z"/></g>
    <g id="hen-eye" fill="#FFFFFF" stroke="none" transform="translate(0.000000,4000.000000) scale(1.000000,-1.000000)"><path d="M1508 2384 c-38 -10 -51 -56 -23 -84 28 -28 75 -15 84 24 10 35 -25 70 -61 60z m33 -23 c17 -7 21 -32 8 -46 -11 -10 -30 -10 -41 0 -11 12 -10 33 3 43 7 6 21 7 30 3z M1516 2349 c-5 -5 -5 -7 0 -11 5 -5 7 -5 11 0 5 5 5 7 0 11 -5 5 -7 5 -11 0z"/></g>
    <g id="hen-iris" fill="#FF9416" stroke="none" transform="translate(0.000000,4000.000000) scale(1.000000,-1.000000)"><path d="M1519 2366 c-34 -11 -26 -61 10 -61 18 0 30 12 30 31 0 9 -2 15 -8 22 -9 8 -21 11 -32 8z m16 -19 c8 -3 9 -17 2 -23 -6 -3 -16 -2 -20 4 -3 4 -3 17 0 20 3 2 11 2 18 -1z"/></g>
    <g id="hen-pupil" class="keep" fill="#111111" stroke="none" transform="translate(0.000000,4000.000000) scale(1.000000,-1.000000)"><path d="M1524 2351 c-2 0 -2 -1 1 -3 2 -1 3 -3 3 -4 0 -3 -4 -7 -7 -7 -2 0 -6 4 -6 6 0 3 -3 -4 -3 -8 0 -7 9 -16 17 -16 7 0 16 9 16 17 0 10 -11 18 -21 15z"/></g>
  </g>

  <g id="quote" font-family="Saira Condensed, Impact, sans-serif" font-weight="700">
    <text x="98" y="78.44" font-size="9.36" fill="#111111">“IF YOU WANT TO KNOW</text>
    <text x="98" y="87.32" font-size="9.42" fill="#111111">WHAT LIFE’S LIKE WHEN</text>
    <text x="98" y="96.80" font-size="10.29" fill="#111111">YOU’RE NOT THE APEX</text>
    <text x="98" y="107.75" font-size="12.42" fill="#111111">INTELLIGENCE,</text>
    <text x="98" y="140.15" font-size="38.26" class="accent" fill="#FF9416">ASK A</text>
    <text x="98" y="157.80" font-size="22.17" class="accent" fill="#FF9416">CHICKEN.”</text>
  </g>

  <text id="attribution" x="100" y="174" font-family="Saira Condensed, Impact, sans-serif" font-weight="700" font-size="8" fill="#111111" text-anchor="middle">GEOFFREY HINTON</text>
  <text id="attribution-sub" x="100" y="180.5" font-family="Saira Condensed, Impact, sans-serif" font-weight="700" font-style="italic" font-size="4.2" fill="#111111" text-anchor="middle">2024 Nobel Prize in Physics · interview on “The Diary of a CEO”, 16 June 2025</text>
</svg>
