<?xml version="1.0" encoding="UTF-8"?>
<!--
  Design: el-ultimo-jardin (chest, Spanish)
  Voice lane: B (a lab founder's own words)
  GENERATED by scripts/draw-planeta.py — edit there, not here.

  Layout (200 × 200 mm canvas):
    y=15..63    logo
    y=66..157   the planet (tiled in solar panels + data centres) with the
                last garden on top: one person, one tree
    right       the quote as a CAIS-style packed block (every row the same
                width; short connectors rotated 90° beside the big word)
    y=190..195  attribution
-->
<svg xmlns="http://www.w3.org/2000/svg"
     viewBox="0 0 200 200"
     width="200mm" height="200mm"
     role="img"
     aria-label="«Creo que es bastante probable que toda la superficie de la Tierra acabe cubierta de paneles solares y centros de datos.» — Ilya Sutskever">
  <title>«Creo que es bastante probable que toda la superficie de la Tierra acabe cubierta de paneles solares y centros de datos.» — Ilya Sutskever</title>

  <svg x="25" y="15" width="150" height="41" viewBox="0 0 3400 929">
<title>PauseAI en Español</title>
  <path fill="#FF9416" d="M 468.76 0.00 Q 573.42 2.95 658.42 41.95 Q 711.53 66.31 759.62 105.84 C 824.03 158.80 873.42 228.90 901.79 307.75 L 814.32 307.98 A 0.33 0.32 90.0 0 0 814.00 308.31 L 814.00 694.26 A 0.46 0.46 0.0 0 0 814.46 694.72 L 867.94 694.70 Q 856.42 714.76 842.98 733.79 L 814.66 733.90 A 0.51 0.51 0.0 0 0 814.15 734.41 L 814.03 770.38 Q 740.13 854.22 635.49 896.49 Q 560.81 926.66 470.41 929.00 L 453.46 929.00 Q 354.45 926.13 267.45 885.24 C 179.68 843.99 106.39 775.96 58.85 691.12 Q 3.27 591.91 0.00 475.67 L 0.00 453.45 Q 0.48 444.46 1.06 435.48 Q 6.57 349.09 41.35 272.55 C 81.84 183.42 150.47 108.49 235.48 60.21 Q 335.69 3.31 453.15 0.00 L 468.76 0.00 Z M 542.42 186.22 C 540.93 198.61 533.23 209.46 520.70 212.66 C 512.37 214.79 501.34 212.18 493.30 208.95 C 484.38 205.36 473.23 197.81 465.77 193.00 Q 459.09 188.68 445.15 181.62 C 430.23 174.07 411.33 172.65 395.55 178.78 C 368.24 189.40 350.25 216.96 346.53 245.30 A 0.53 0.52 -76.6 0 0 346.88 245.87 L 389.49 260.20 A 0.32 0.32 0.0 0 0 389.91 259.94 C 391.50 247.18 398.63 236.50 411.51 233.12 C 420.34 230.80 433.35 233.79 440.80 237.97 C 454.11 245.45 461.28 250.32 473.10 257.93 Q 487.03 266.90 501.97 269.39 C 512.87 271.20 523.52 271.47 533.94 267.94 C 563.22 258.02 581.81 230.98 585.84 201.03 A 0.70 0.69 -77.1 0 0 585.37 200.27 L 542.83 185.96 A 0.32 0.31 -76.6 0 0 542.42 186.22 Z M 421.59 308.97 A 0.41 0.41 0.0 0 0 421.18 308.56 L 318.04 308.56 A 0.41 0.41 0.0 0 0 317.63 308.97 L 317.63 671.73 A 0.41 0.41 0.0 0 0 318.04 672.14 L 421.18 672.14 A 0.41 0.41 0.0 0 0 421.59 671.73 L 421.59 308.97 Z M 611.13 309.10 A 0.56 0.56 0.0 0 0 610.57 308.54 L 507.73 308.54 A 0.56 0.56 0.0 0 0 507.17 309.10 L 507.17 671.58 A 0.56 0.56 0.0 0 0 507.73 672.14 L 610.57 672.14 A 0.56 0.56 0.0 0 0 611.13 671.58 L 611.13 309.10 Z"/>
  <path fill="#FFFFFF" d="M 542.42 186.22 A 0.32 0.31 -76.6 0 1 542.83 185.96 L 585.37 200.27 A 0.70 0.69 -77.1 0 1 585.84 201.03 C 581.81 230.98 563.22 258.02 533.94 267.94 C 523.52 271.47 512.87 271.20 501.97 269.39 Q 487.03 266.90 473.10 257.93 C 461.28 250.32 454.11 245.45 440.80 237.97 C 433.35 233.79 420.34 230.80 411.51 233.12 C 398.63 236.50 391.50 247.18 389.91 259.94 A 0.32 0.32 0.0 0 1 389.49 260.20 L 346.88 245.87 A 0.53 0.52 -76.6 0 1 346.53 245.30 C 350.25 216.96 368.24 189.40 395.55 178.78 C 411.33 172.65 430.23 174.07 445.15 181.62 Q 459.09 188.68 465.77 193.00 C 473.23 197.81 484.38 205.36 493.30 208.95 C 501.34 212.18 512.37 214.79 520.70 212.66 C 533.23 209.46 540.93 198.61 542.42 186.22 Z"/>
  <path fill="#FFFFFF" d="M 2377.20 333.40 L 2338.38 426.89 A 0.46 0.46 0.0 0 1 2337.74 427.13 C 2307.57 411.79 2274.48 400.91 2240.70 398.87 Q 2222.37 397.76 2206.96 400.40 Q 2196.57 402.18 2188.60 407.31 C 2180.65 412.44 2176.96 424.80 2183.73 432.60 Q 2187.36 436.79 2191.38 438.66 Q 2204.44 444.75 2219.96 447.82 Q 2268.05 457.32 2273.92 458.61 Q 2302.30 464.86 2324.94 474.56 C 2338.87 480.52 2354.62 489.78 2365.71 500.63 C 2388.06 522.48 2395.44 549.46 2393.75 580.39 C 2391.96 613.15 2375.09 643.76 2349.46 664.19 C 2319.81 687.82 2284.41 698.80 2247.00 702.04 C 2190.68 706.92 2132.81 699.72 2080.20 680.32 Q 2062.41 673.76 2045.97 664.12 A 0.47 0.47 0.0 0 1 2045.77 663.53 L 2087.03 569.14 A 0.50 0.50 0.0 0 1 2087.73 568.91 C 2130.05 593.22 2178.39 605.96 2227.24 603.83 C 2241.15 603.22 2269.00 600.31 2264.86 579.18 C 2262.50 567.12 2242.98 561.37 2232.55 558.83 Q 2216.93 555.03 2201.28 551.82 C 2169.23 545.23 2136.83 538.29 2107.76 523.05 Q 2093.40 515.52 2083.65 506.91 C 2065.04 490.50 2054.79 469.62 2052.26 444.23 C 2047.70 398.39 2065.79 358.65 2103.55 332.49 C 2129.06 314.82 2158.34 305.49 2189.20 301.68 Q 2244.80 294.83 2302.79 306.15 Q 2344.54 314.31 2376.91 332.57 A 0.67 0.66 25.9 0 1 2377.20 333.40 Z"/>
  <path fill="#FFFFFF" d="M 867.94 694.70 L 814.46 694.72 A 0.46 0.46 0.0 0 1 814.00 694.26 L 814.00 308.31 A 0.33 0.32 90.0 0 1 814.32 307.98 L 901.79 307.75 Q 902.08 307.97 902.25 307.97 Q 947.64 307.95 1002.25 307.98 C 1053.82 308.00 1110.04 322.19 1144.76 363.01 Q 1173.24 396.49 1176.00 442.76 C 1177.07 460.57 1175.72 479.73 1170.81 496.20 C 1149.39 568.13 1078.46 598.77 1008.49 599.50 Q 975.43 599.84 944.73 599.59 A 0.37 0.37 0.0 0 0 944.35 599.96 L 944.35 694.27 A 0.45 0.44 -90.0 0 1 943.91 694.72 L 867.94 694.70 Z M 944.35 453.84 Q 944.36 493.87 944.40 498.83 A 0.31 0.30 89.7 0 0 944.70 499.13 Q 975.80 499.09 980.26 499.11 C 994.92 499.19 1005.62 499.45 1016.82 495.61 C 1035.57 489.19 1044.89 473.33 1044.89 453.82 C 1044.88 434.31 1035.55 418.46 1016.80 412.05 C 1005.61 408.21 994.91 408.47 980.25 408.56 Q 975.79 408.58 944.69 408.55 A 0.31 0.30 -89.7 0 0 944.38 408.85 Q 944.34 413.81 944.35 453.84 Z"/>
  <path fill="#FFFFFF" d="M 1326.95 307.97 L 1454.65 307.97 A 0.33 0.33 0.0 0 1 1454.96 308.17 L 1623.69 694.21 A 0.33 0.33 0.0 0 1 1623.39 694.67 L 1489.35 694.67 A 0.33 0.33 0.0 0 1 1489.04 694.46 L 1463.30 627.50 A 0.33 0.33 0.0 0 0 1462.99 627.29 L 1316.40 627.29 A 0.33 0.33 0.0 0 0 1316.09 627.50 L 1290.35 694.46 A 0.33 0.33 0.0 0 1 1290.04 694.67 L 1158.21 694.67 A 0.33 0.33 0.0 0 1 1157.91 694.21 L 1326.64 308.17 A 0.33 0.33 0.0 0 1 1326.95 307.97 Z M 1352.43 532.94 A 0.31 0.31 0.0 0 0 1352.72 533.36 L 1426.68 533.36 A 0.31 0.31 0.0 0 0 1426.97 532.94 L 1389.99 436.73 A 0.31 0.31 0.0 0 0 1389.41 436.73 L 1352.43 532.94 Z"/>
  <path fill="#FFFFFF" d="M 1881.86 308.32 A 0.36 0.35 -90.0 0 1 1882.21 307.96 L 2009.65 307.96 A 0.34 0.34 0.0 0 1 2009.99 308.30 Q 2010.04 460.66 2009.95 524.49 C 2009.91 553.43 2004.55 584.33 1992.44 610.13 C 1970.10 657.71 1928.21 687.40 1877.00 698.01 Q 1832.76 707.18 1786.49 701.44 C 1760.50 698.21 1735.71 691.14 1712.96 678.04 C 1686.57 662.84 1665.13 639.92 1651.94 612.35 C 1639.11 585.53 1633.59 555.32 1633.37 525.75 Q 1633.24 507.93 1633.32 308.35 A 0.39 0.38 90.0 0 1 1633.70 307.96 L 1763.32 307.96 A 0.35 0.35 0.0 0 1 1763.67 308.31 Q 1763.61 400.54 1763.68 520.50 C 1763.69 540.10 1766.87 566.65 1781.41 581.66 C 1794.60 595.27 1812.13 599.44 1830.79 597.58 C 1855.80 595.08 1871.98 578.79 1877.74 555.00 Q 1881.86 538.00 1881.85 518.50 Q 1881.84 412.93 1881.86 308.32 Z"/>
  <path fill="#FFFFFF" d="M 2433.16 307.96 L 2746.73 307.96 A 0.35 0.35 0.0 0 1 2747.08 308.31 L 2747.08 405.96 A 0.35 0.35 0.0 0 1 2746.73 406.31 L 2561.27 406.31 A 0.35 0.35 0.0 0 0 2560.92 406.66 L 2560.92 451.25 A 0.35 0.35 0.0 0 0 2561.27 451.60 L 2724.07 451.60 A 0.35 0.35 0.0 0 1 2724.42 451.95 L 2724.42 545.19 A 0.35 0.35 0.0 0 1 2724.07 545.54 L 2561.27 545.54 A 0.35 0.35 0.0 0 0 2560.92 545.89 L 2560.92 596.00 A 0.35 0.35 0.0 0 0 2561.27 596.35 L 2753.92 596.35 A 0.35 0.35 0.0 0 1 2754.27 596.70 L 2754.27 694.32 A 0.35 0.35 0.0 0 1 2753.92 694.67 L 2433.16 694.67 A 0.35 0.35 0.0 0 1 2432.81 694.32 L 2432.81 308.31 A 0.35 0.35 0.0 0 1 2433.16 307.96 Z"/>
  <path transform="translate(20 0)" fill="#FF9416" d="M 2762.80 694.68 A 0.22 0.22 0.0 0 1 2762.60 694.37 L 2931.37 308.25 A 0.47 0.46 11.4 0 1 2931.80 307.97 L 3059.40 307.97 A 0.35 0.35 0.0 0 1 3059.72 308.18 L 3228.46 694.21 A 0.33 0.33 0.0 0 1 3228.16 694.67 L 3094.44 694.68 A 0.82 0.81 -10.5 0 1 3093.68 694.16 L 3068.13 627.65 A 0.57 0.56 -10.5 0 0 3067.60 627.29 L 2921.51 627.29 A 0.86 0.84 -79.4 0 0 2920.72 627.84 L 2895.15 694.37 A 0.49 0.48 -79.3 0 1 2894.70 694.68 L 2762.80 694.68 Z M 2957.20 532.93 A 0.32 0.32 0.0 0 0 2957.50 533.37 L 3031.42 533.37 A 0.32 0.32 0.0 0 0 3031.72 532.93 L 2994.76 436.74 A 0.32 0.32 0.0 0 0 2994.16 436.74 L 2957.20 532.93 Z"/>
  <rect transform="translate(20 0)" fill="#FF9416" x="3249.45" y="307.97" width="130.38" height="386.70" rx="0.37"/>
  <rect fill="#FFFFFF" x="317.63" y="308.56" width="103.96" height="363.58" rx="0.41"/>
  <rect fill="#FFFFFF" x="507.17" y="308.54" width="103.96" height="363.60" rx="0.56"/>
  <path fill="#FF9416" d="M 1904.26 720.09 C 1904.19 701.07 1913.35 681.61 1934.85 680.87 C 1946.28 680.48 1953.81 686.16 1963.88 692.62 C 1971.08 697.23 1979.50 693.30 1980.23 684.46 A 0.65 0.65 0.0 0 1 1980.88 683.86 L 2004.23 683.86 A 0.63 0.63 0.0 0 1 2004.86 684.49 Q 2004.72 703.45 1993.55 715.21 C 1987.27 721.82 1976.41 724.21 1967.29 722.52 C 1960.15 721.19 1953.84 717.20 1948.00 713.08 Q 1944.30 710.47 1942.24 709.91 C 1934.30 707.75 1930.11 712.68 1928.79 720.10 A 0.71 0.71 0.0 0 1 1928.09 720.68 L 1904.85 720.68 A 0.59 0.59 0.0 0 1 1904.26 720.09 Z"/>
  <path fill="#FFFFFF" d="M 1367.92 882.35 A 0.35 0.35 0.0 0 1 1367.76 881.90 L 1384.75 843.03 A 0.57 0.56 25.5 0 1 1385.53 842.76 C 1405.91 853.50 1425.68 858.83 1448.75 856.67 Q 1450.01 856.55 1453.51 855.28 C 1458.56 853.45 1461.05 849.09 1457.71 844.13 C 1455.43 840.76 1446.96 838.52 1442.82 837.64 C 1412.26 831.17 1367.36 825.47 1370.27 781.49 Q 1371.73 759.37 1389.53 745.70 C 1404.95 733.87 1424.68 730.13 1444.01 730.12 C 1465.60 730.11 1486.76 733.79 1505.57 743.93 A 0.46 0.46 0.0 0 1 1505.78 744.52 L 1489.79 783.06 A 0.54 0.54 0.0 0 1 1489.05 783.33 C 1472.62 774.91 1452.60 769.32 1434.62 772.39 C 1431.19 772.97 1426.32 774.75 1424.73 777.94 C 1421.99 783.43 1425.42 787.26 1430.37 789.14 C 1439.04 792.42 1446.01 793.20 1462.07 796.43 C 1482.57 800.55 1506.49 810.07 1511.63 832.84 C 1518.75 864.37 1495.62 889.16 1466.33 895.63 C 1443.14 900.76 1416.95 899.10 1394.36 892.94 Q 1380.56 889.18 1367.92 882.35 Z"/>
  <path fill="#FFFFFF" d="M 2144.52 730.15 C 2173.88 730.14 2201.75 741.16 2219.48 764.96 C 2230.19 779.34 2235.43 796.34 2235.43 814.38 C 2235.44 832.43 2230.19 849.42 2219.48 863.81 C 2201.76 887.61 2173.89 898.63 2144.54 898.64 C 2115.18 898.64 2087.31 887.62 2069.58 863.82 C 2058.87 849.44 2053.63 832.44 2053.63 814.40 C 2053.63 796.35 2058.87 779.36 2069.58 764.97 C 2087.30 741.17 2115.17 730.15 2144.52 730.15 Z M 2108.41 814.40 C 2108.41 836.04 2121.25 854.67 2144.54 854.68 C 2167.83 854.68 2180.67 836.04 2180.67 814.40 C 2180.67 792.75 2167.83 774.12 2144.54 774.12 C 2121.25 774.12 2108.41 792.75 2108.41 814.40 Z"/>
  <path fill="#FFFFFF" d="M 842.98 733.79 L 944.34 733.78 A 0.66 0.65 -0.0 0 1 945.00 734.43 L 945.00 774.39 A 0.40 0.40 0.0 0 1 944.60 774.79 L 868.11 774.79 A 0.68 0.68 0.0 0 0 867.43 775.47 L 867.43 793.14 A 0.51 0.51 0.0 0 0 867.94 793.65 L 935.15 793.65 A 0.44 0.43 90.0 0 1 935.58 794.09 L 935.58 832.32 A 0.48 0.47 -90.0 0 1 935.11 832.80 L 868.07 832.80 A 0.64 0.64 0.0 0 0 867.43 833.44 L 867.43 853.53 A 0.42 0.41 90.0 0 0 867.84 853.95 L 947.57 853.95 A 0.41 0.41 0.0 0 1 947.98 854.36 L 947.98 894.46 A 0.46 0.46 0.0 0 1 947.52 894.92 L 814.28 894.92 A 0.24 0.24 0.0 0 1 814.04 894.68 L 814.03 770.38 L 814.15 734.41 A 0.51 0.51 0.0 0 1 814.66 733.90 L 842.98 733.79 Z"/>
  <path fill="#FFFFFF" d="M 1029.13 830.38 Q 1025.81 826.42 1022.22 822.16 A 0.22 0.22 0.0 0 0 1021.83 822.30 L 1021.82 894.31 A 0.59 0.59 0.0 0 1 1021.23 894.90 L 969.21 894.90 A 0.32 0.31 0.0 0 1 968.89 894.59 L 968.91 734.38 A 0.58 0.58 0.0 0 1 969.49 733.80 L 1012.86 733.82 A 1.38 1.35 69.6 0 1 1013.90 734.31 Q 1014.11 734.54 1067.46 798.35 Q 1070.77 802.30 1074.37 806.57 A 0.22 0.22 0.0 0 0 1074.76 806.43 L 1074.77 734.41 A 0.59 0.59 0.0 0 1 1075.36 733.82 L 1127.38 733.83 A 0.32 0.31 0.0 0 1 1127.70 734.14 L 1127.68 894.35 A 0.58 0.58 0.0 0 1 1127.10 894.93 L 1083.72 894.91 A 1.38 1.35 69.6 0 1 1082.68 894.42 Q 1082.48 894.18 1029.13 830.38 Z"/>
  <path fill="#FFFFFF" d="M 1356.44 894.92 L 1223.26 894.92 A 0.39 0.39 0.0 0 1 1222.87 894.53 L 1222.87 734.21 A 0.39 0.39 0.0 0 1 1223.26 733.82 L 1353.44 733.82 A 0.39 0.39 0.0 0 1 1353.83 734.21 L 1353.83 774.40 A 0.39 0.39 0.0 0 1 1353.44 774.79 L 1276.67 774.79 A 0.39 0.39 0.0 0 0 1276.28 775.18 L 1276.28 793.26 A 0.39 0.39 0.0 0 0 1276.67 793.65 L 1344.00 793.65 A 0.39 0.39 0.0 0 1 1344.39 794.04 L 1344.39 832.41 A 0.39 0.39 0.0 0 1 1344.00 832.80 L 1276.67 832.80 A 0.39 0.39 0.0 0 0 1276.28 833.19 L 1276.28 853.56 A 0.39 0.39 0.0 0 0 1276.67 853.95 L 1356.44 853.95 A 0.39 0.39 0.0 0 1 1356.83 854.34 L 1356.83 894.53 A 0.39 0.39 0.0 0 1 1356.44 894.92 Z"/>
  <path fill="#FFFFFF" d="M 1529.21 894.92 A 0.23 0.23 0.0 0 1 1528.98 894.69 L 1528.98 734.22 A 0.41 0.41 0.0 0 1 1529.39 733.81 Q 1603.31 733.83 1606.00 733.81 C 1621.68 733.67 1637.92 736.40 1651.64 744.34 C 1674.22 757.40 1683.06 780.55 1679.05 805.68 Q 1675.48 828.09 1656.56 841.60 C 1634.71 857.21 1609.14 855.36 1583.71 855.32 A 0.39 0.39 0.0 0 0 1583.32 855.71 L 1583.32 894.51 A 0.42 0.41 -0.0 0 1 1582.90 894.92 L 1529.21 894.92 Z M 1583.32 776.02 L 1583.32 813.12 A 0.27 0.27 0.0 0 0 1583.59 813.39 L 1606.43 813.39 A 18.71 17.38 0.0 0 0 1625.14 796.01 L 1625.14 793.13 A 18.71 17.38 -0.0 0 0 1606.43 775.75 L 1583.59 775.75 A 0.27 0.27 0.0 0 0 1583.32 776.02 Z"/>
  <path fill="#FFFFFF" d="M 1810.21 894.71 L 1799.58 867.06 A 0.33 0.33 0.0 0 0 1799.27 866.85 L 1738.47 866.85 A 0.33 0.33 0.0 0 0 1738.16 867.06 L 1727.53 894.71 A 0.33 0.33 0.0 0 1 1727.22 894.92 L 1672.71 894.92 A 0.33 0.33 0.0 0 1 1672.41 894.46 L 1742.54 734.02 A 0.33 0.33 0.0 0 1 1742.85 733.82 L 1795.81 733.82 A 0.33 0.33 0.0 0 1 1796.12 734.02 L 1866.25 894.46 A 0.33 0.33 0.0 0 1 1865.95 894.92 L 1810.52 894.92 A 0.33 0.33 0.0 0 1 1810.21 894.71 Z M 1753.45 827.25 A 0.33 0.33 0.0 0 0 1753.76 827.70 L 1783.98 827.70 A 0.33 0.33 0.0 0 0 1784.29 827.25 L 1769.18 787.93 A 0.33 0.33 0.0 0 0 1768.56 787.93 L 1753.45 827.25 Z"/>
  <path fill="#FF9416" d="M 1935.35 830.39 Q 1932.04 826.44 1928.44 822.17 A 0.22 0.22 0.0 0 0 1928.05 822.31 L 1928.05 894.34 A 0.59 0.59 0.0 0 1 1927.46 894.93 L 1875.43 894.93 A 0.32 0.31 0.0 0 1 1875.11 894.62 L 1875.11 734.38 A 0.58 0.58 0.0 0 1 1875.69 733.80 L 1919.07 733.81 A 1.38 1.35 69.6 0 1 1920.11 734.30 Q 1920.32 734.54 1973.69 798.35 Q 1977.00 802.30 1980.60 806.57 A 0.22 0.22 0.0 0 0 1980.99 806.43 L 1980.99 734.40 A 0.59 0.59 0.0 0 1 1981.58 733.81 L 2033.61 733.81 A 0.32 0.31 0.0 0 1 2033.93 734.12 L 2033.93 894.36 A 0.58 0.58 0.0 0 1 2033.35 894.94 L 1989.97 894.93 A 1.38 1.35 69.6 0 1 1988.93 894.44 Q 1988.72 894.20 1935.35 830.39 Z"/>
  <path fill="#FFFFFF" d="M 2381.83 894.92 L 2255.57 894.92 A 0.39 0.39 0.0 0 1 2255.18 894.53 L 2255.18 734.21 A 0.39 0.39 0.0 0 1 2255.57 733.82 L 2309.14 733.82 A 0.39 0.39 0.0 0 1 2309.53 734.21 L 2309.53 852.43 A 0.39 0.39 0.0 0 0 2309.92 852.82 L 2381.83 852.82 A 0.39 0.39 0.0 0 1 2382.22 853.21 L 2382.22 894.53 A 0.39 0.39 0.0 0 1 2381.83 894.92 Z"/>
</svg>

  <g id="planet">
    <circle cx="57.0" cy="128.0" r="41.6" fill="none" stroke="#FFFFFF" stroke-width="0.9"/>
    <path id="panels" fill="#FFFFFF" d="M 22.10 147.53 L 25.49 151.32 L 22.81 144.57 L 19.13 140.45 Z M 88.51 151.32 L 89.69 150.33 L 91.11 147.43 L 89.87 148.47 Z M 90.15 149.88 L 90.88 149.07 L 92.35 146.11 L 91.59 146.96 Z M 91.24 148.60 L 91.90 147.53 L 93.42 144.51 L 92.72 145.63 Z M 90.20 147.65 L 91.45 146.60 L 92.47 143.49 L 91.19 144.57 Z M 91.93 146.13 L 92.70 145.27 L 93.76 142.12 L 92.97 143.00 Z M 93.07 144.79 L 93.78 143.65 L 94.87 140.45 L 94.15 141.61 Z M 34.36 95.05 L 33.51 95.77 L 36.27 94.18 L 37.03 93.54 Z M 33.18 96.09 L 32.66 96.68 L 35.52 94.97 L 35.98 94.46 Z M 32.40 97.01 L 31.92 97.78 L 34.87 95.95 L 35.30 95.27 Z M 37.78 93.18 L 37.06 93.79 L 40.06 92.58 L 40.67 92.07 Z M 36.78 94.07 L 36.34 94.56 L 39.44 93.24 L 39.82 92.82 Z M 36.12 94.84 L 35.71 95.50 L 38.91 94.03 L 39.26 93.48 Z M 82.08 97.78 L 81.60 97.01 L 78.70 95.27 L 79.13 95.95 Z M 81.34 96.68 L 80.82 96.09 L 78.02 94.46 L 78.48 94.97 Z M 80.49 95.77 L 79.64 95.05 L 76.97 93.54 L 77.73 94.18 Z M 78.29 95.50 L 77.88 94.84 L 74.74 93.48 L 75.09 94.03 Z M 77.66 94.56 L 77.22 94.07 L 74.18 92.82 L 74.56 93.24 Z M 76.94 93.79 L 76.22 93.18 L 73.33 92.07 L 73.94 92.58 Z M 43.83 165.73 L 45.15 166.12 L 43.44 165.18 L 41.92 164.74 Z M 45.75 166.28 L 46.86 166.54 L 45.39 165.66 L 44.13 165.36 Z M 47.49 166.67 L 48.98 166.94 L 47.82 166.13 L 46.12 165.81 Z M 41.42 164.41 L 42.99 164.87 L 41.43 163.51 L 39.69 163.00 Z M 43.70 165.06 L 45.01 165.36 L 43.67 164.06 L 42.22 163.72 Z M 45.76 165.52 L 47.52 165.84 L 46.47 164.59 L 44.51 164.24 Z M 65.02 166.94 L 66.51 166.67 L 67.88 165.81 L 66.18 166.13 Z M 67.14 166.54 L 68.25 166.28 L 69.87 165.36 L 68.61 165.66 Z M 68.85 166.12 L 70.17 165.73 L 72.08 164.74 L 70.56 165.18 Z M 66.48 165.84 L 68.24 165.52 L 69.49 164.24 L 67.53 164.59 Z M 68.99 165.36 L 70.30 165.06 L 71.78 163.72 L 70.33 164.06 Z M 71.01 164.87 L 72.58 164.41 L 74.31 163.00 L 72.57 163.51 Z M 94.38 118.03 L 94.38 113.76 L 90.72 106.89 L 90.72 110.75 Z M 19.62 113.76 L 19.33 114.93 L 20.75 111.76 L 21.03 110.64 Z M 19.27 115.44 L 19.27 116.36 L 20.69 113.14 L 20.69 112.26 Z M 19.33 116.87 L 19.62 118.03 L 21.03 114.75 L 20.75 113.63 Z M 21.47 109.81 L 21.19 110.92 L 23.02 107.94 L 23.28 106.89 Z M 21.14 111.41 L 21.14 112.28 L 22.97 109.23 L 22.97 108.41 Z M 21.19 112.77 L 21.47 113.88 L 23.28 110.75 L 23.02 109.70 Z M 31.89 158.96 L 33.16 159.72 L 31.22 157.63 L 29.85 156.81 Z M 33.77 160.04 L 34.90 160.59 L 33.10 158.57 L 31.87 157.98 Z M 35.57 160.88 L 37.19 161.52 L 35.58 159.59 L 33.83 158.89 Z M 29.34 156.18 L 30.73 157.02 L 29.09 154.60 L 27.61 153.71 Z M 31.40 157.37 L 32.65 157.98 L 31.12 155.62 L 29.80 154.97 Z M 33.39 158.30 L 35.17 159.01 L 33.81 156.71 L 31.91 155.96 Z M 76.81 161.52 L 78.43 160.88 L 80.17 158.89 L 78.42 159.59 Z M 79.10 160.59 L 80.23 160.04 L 82.13 157.98 L 80.90 158.57 Z M 80.84 159.72 L 82.11 158.96 L 84.15 156.81 L 82.78 157.63 Z M 78.83 159.01 L 80.61 158.30 L 82.09 155.96 L 80.19 156.71 Z M 81.35 157.98 L 82.60 157.37 L 84.20 154.97 L 82.88 155.62 Z M 83.27 157.02 L 84.66 156.18 L 86.39 153.71 L 84.91 154.60 Z M 50.39 167.15 L 51.96 167.33 L 51.23 166.57 L 49.43 166.36 Z M 52.66 167.40 L 53.91 167.49 L 53.47 166.75 L 52.03 166.64 Z M 54.62 167.52 L 56.25 167.57 L 56.15 166.85 L 54.28 166.79 Z M 49.18 166.09 L 51.04 166.30 L 50.38 165.11 L 48.31 164.87 Z M 51.87 166.38 L 53.35 166.49 L 52.94 165.31 L 51.30 165.19 Z M 54.19 166.53 L 56.12 166.59 L 56.02 165.42 L 53.88 165.36 Z M 57.75 167.57 L 59.38 167.52 L 59.72 166.79 L 57.85 166.85 Z M 60.09 167.49 L 61.34 167.40 L 61.97 166.64 L 60.53 166.75 Z M 62.04 167.33 L 63.61 167.15 L 64.57 166.36 L 62.77 166.57 Z M 57.88 166.59 L 59.81 166.53 L 60.12 165.36 L 57.98 165.42 Z M 60.65 166.49 L 62.13 166.38 L 62.70 165.19 L 61.06 165.31 Z M 62.96 166.30 L 64.82 166.09 L 65.69 164.87 L 63.62 165.11 Z M 89.55 109.04 L 89.80 108.02 L 87.51 105.22 L 87.27 106.16 Z M 89.86 107.57 L 89.86 106.78 L 87.56 104.06 L 87.56 104.80 Z M 89.80 106.33 L 89.55 105.32 L 87.27 102.70 L 87.51 103.65 Z M 86.60 105.41 L 86.83 104.49 L 84.19 101.95 L 83.98 102.79 Z M 86.88 104.08 L 86.88 103.36 L 84.24 100.92 L 84.24 101.58 Z M 86.83 102.95 L 86.60 102.03 L 83.98 99.71 L 84.19 100.55 Z M 24.45 105.32 L 24.20 106.33 L 26.49 103.65 L 26.73 102.70 Z M 24.14 106.78 L 24.14 107.57 L 26.44 104.80 L 26.44 104.06 Z M 24.20 108.02 L 24.45 109.04 L 26.73 106.16 L 26.49 105.22 Z M 27.40 102.03 L 27.17 102.95 L 29.81 100.55 L 30.02 99.71 Z M 27.12 103.36 L 27.12 104.08 L 29.76 101.58 L 29.76 100.92 Z M 27.17 104.49 L 27.40 105.41 L 30.02 102.79 L 29.81 101.95 Z M 18.65 138.58 L 19.39 139.76 L 18.84 136.41 L 18.09 135.21 Z M 19.78 140.27 L 20.58 141.16 L 20.04 137.83 L 19.23 136.92 Z M 21.08 141.65 L 22.39 142.75 L 21.88 139.44 L 20.56 138.33 Z M 18.00 134.28 L 18.74 135.48 L 18.63 132.04 L 17.88 130.83 Z M 19.14 136.00 L 19.95 136.90 L 19.84 133.47 L 19.03 132.56 Z M 20.47 137.41 L 21.79 138.52 L 21.69 135.09 L 20.36 133.97 Z M 91.61 142.75 L 92.92 141.65 L 93.44 138.33 L 92.12 139.44 Z M 93.42 141.16 L 94.22 140.27 L 94.77 136.92 L 93.96 137.83 Z M 94.61 139.76 L 95.35 138.58 L 95.91 135.21 L 95.16 136.41 Z M 92.21 138.52 L 93.53 137.41 L 93.64 133.97 L 92.31 135.09 Z M 94.05 136.90 L 94.86 136.00 L 94.97 132.56 L 94.16 133.47 Z M 95.26 135.48 L 96.00 134.28 L 96.12 130.83 L 95.37 132.04 Z M 82.39 101.40 L 82.39 98.50 L 75.31 94.55 L 75.31 96.65 Z M 31.61 98.50 L 31.41 99.29 L 34.42 97.28 L 34.60 96.58 Z M 31.37 99.64 L 31.37 100.26 L 34.39 98.14 L 34.39 97.59 Z M 31.41 100.61 L 31.61 101.40 L 34.60 99.14 L 34.42 98.44 Z M 35.45 96.11 L 35.28 96.78 L 38.54 95.12 L 38.69 94.55 Z M 35.25 97.08 L 35.25 97.60 L 38.51 95.82 L 38.51 95.37 Z M 35.28 97.90 L 35.45 98.57 L 38.69 96.65 L 38.54 96.07 Z M 17.97 128.86 L 21.77 133.11 L 23.09 125.10 L 19.44 121.02 Z M 92.23 133.11 L 93.56 131.99 L 93.16 128.49 L 91.85 129.59 Z M 94.08 131.49 L 94.89 130.58 L 94.47 127.10 L 93.67 127.99 Z M 95.29 130.06 L 96.03 128.86 L 95.60 125.39 L 94.87 126.58 Z M 91.69 128.63 L 92.99 127.53 L 92.18 124.03 L 90.91 125.10 Z M 93.50 127.04 L 94.30 126.14 L 93.46 122.67 L 92.68 123.55 Z M 94.69 125.63 L 95.43 124.45 L 94.56 121.02 L 93.84 122.17 Z M 38.77 162.06 L 40.61 162.60 L 39.27 160.75 L 37.29 160.17 Z M 41.44 162.82 L 42.97 163.18 L 41.83 161.37 L 40.17 160.99 Z M 43.85 163.36 L 45.91 163.74 L 45.01 161.98 L 42.78 161.58 Z M 36.92 159.60 L 38.94 160.20 L 37.80 157.98 L 35.66 157.35 Z M 39.86 160.44 L 41.54 160.83 L 40.57 158.65 L 38.78 158.23 Z M 42.51 161.03 L 44.78 161.45 L 44.02 159.31 L 41.60 158.87 Z M 68.09 163.74 L 70.15 163.36 L 71.22 161.58 L 68.99 161.98 Z M 71.03 163.18 L 72.56 162.82 L 73.83 160.99 L 72.17 161.37 Z M 73.39 162.60 L 75.23 162.06 L 76.71 160.17 L 74.73 160.75 Z M 69.22 161.45 L 71.49 161.03 L 72.40 158.87 L 69.98 159.31 Z M 72.46 160.83 L 74.14 160.44 L 75.22 158.23 L 73.43 158.65 Z M 75.06 160.20 L 77.08 159.60 L 78.34 157.35 L 76.20 157.98 Z M 26.74 152.20 L 28.27 153.12 L 27.02 150.34 L 25.43 149.38 Z M 28.99 153.50 L 30.36 154.17 L 29.20 151.43 L 27.78 150.74 Z M 31.17 154.52 L 33.12 155.30 L 32.09 152.61 L 30.05 151.81 Z M 25.12 148.58 L 26.73 149.54 L 25.82 146.51 L 24.16 145.52 Z M 27.49 149.95 L 28.93 150.65 L 28.09 147.65 L 26.61 146.93 Z M 29.79 151.03 L 31.84 151.84 L 31.09 148.88 L 28.97 148.04 Z M 80.88 155.30 L 82.83 154.52 L 83.95 151.81 L 81.91 152.61 Z M 83.64 154.17 L 85.01 153.50 L 86.22 150.74 L 84.80 151.43 Z M 85.73 153.12 L 87.26 152.20 L 88.57 149.38 L 86.98 150.34 Z M 82.16 151.84 L 84.21 151.03 L 85.03 148.04 L 82.91 148.88 Z M 85.07 150.65 L 86.51 149.95 L 87.39 146.93 L 85.91 147.65 Z M 87.27 149.54 L 88.88 148.58 L 89.84 145.52 L 88.18 146.51 Z M 20.08 119.09 L 20.79 120.23 L 22.15 116.86 L 21.47 115.77 Z M 21.16 120.72 L 21.93 121.58 L 23.25 118.16 L 22.51 117.33 Z M 22.42 122.05 L 23.68 123.11 L 24.93 119.63 L 23.72 118.62 Z M 21.91 114.88 L 22.58 115.96 L 24.33 112.72 L 23.70 111.70 Z M 22.93 116.42 L 23.67 117.24 L 25.37 113.94 L 24.67 113.17 Z M 24.13 117.69 L 25.32 118.70 L 26.94 115.32 L 25.81 114.37 Z M 90.32 123.11 L 91.58 122.05 L 90.28 118.62 L 89.07 119.63 Z M 92.07 121.58 L 92.84 120.72 L 91.49 117.33 L 90.75 118.16 Z M 93.21 120.23 L 93.92 119.09 L 92.53 115.77 L 91.85 116.86 Z M 88.68 118.70 L 89.87 117.69 L 88.19 114.37 L 87.06 115.32 Z M 90.33 117.24 L 91.07 116.42 L 89.33 113.17 L 88.63 113.94 Z M 91.42 115.96 L 92.09 114.88 L 90.30 111.70 L 89.67 112.72 Z M 47.85 164.03 L 50.03 164.28 L 49.46 162.56 L 47.11 162.29 Z M 50.99 164.36 L 52.73 164.49 L 52.38 162.79 L 50.50 162.66 Z M 53.71 164.54 L 55.97 164.61 L 55.88 162.92 L 53.45 162.85 Z M 46.92 161.77 L 49.31 162.04 L 48.83 159.94 L 46.29 159.65 Z M 50.38 162.14 L 52.29 162.28 L 52.00 160.19 L 49.97 160.04 Z M 53.38 162.33 L 55.86 162.41 L 55.79 160.33 L 53.15 160.25 Z M 58.03 164.61 L 60.29 164.54 L 60.55 162.85 L 58.12 162.92 Z M 61.27 164.49 L 63.01 164.36 L 63.50 162.66 L 61.62 162.79 Z M 63.97 164.28 L 66.15 164.03 L 66.89 162.29 L 64.54 162.56 Z M 58.14 162.41 L 60.62 162.33 L 60.85 160.25 L 58.21 160.33 Z M 61.71 162.28 L 63.62 162.14 L 64.03 160.04 L 62.00 160.19 Z M 64.69 162.04 L 67.08 161.77 L 67.71 159.65 L 65.17 159.94 Z M 24.85 109.96 L 25.46 110.95 L 27.67 107.94 L 27.10 107.02 Z M 25.79 111.37 L 26.46 112.12 L 28.60 109.03 L 27.98 108.34 Z M 26.89 112.53 L 27.98 113.45 L 30.01 110.27 L 28.99 109.42 Z M 27.76 106.25 L 28.32 107.15 L 30.86 104.37 L 30.35 103.55 Z M 28.62 107.54 L 29.23 108.22 L 31.68 105.35 L 31.13 104.73 Z M 29.61 108.59 L 30.61 109.43 L 32.94 106.45 L 32.03 105.69 Z M 86.02 113.45 L 87.11 112.53 L 85.01 109.42 L 83.99 110.27 Z M 87.54 112.12 L 88.21 111.37 L 86.02 108.34 L 85.40 109.03 Z M 88.54 110.95 L 89.15 109.96 L 86.90 107.02 L 86.33 107.94 Z M 83.39 109.43 L 84.39 108.59 L 81.97 105.69 L 81.06 106.45 Z M 84.77 108.22 L 85.38 107.54 L 82.87 104.73 L 82.32 105.35 Z M 85.68 107.15 L 86.24 106.25 L 83.65 103.55 L 83.14 104.37 Z M 31.92 102.12 L 34.36 104.85 L 40.67 99.13 L 38.91 97.16 Z M 79.64 104.85 L 80.49 104.13 L 77.73 101.55 L 76.97 102.18 Z M 80.82 103.81 L 81.34 103.22 L 78.48 100.75 L 78.02 101.27 Z M 81.60 102.89 L 82.08 102.12 L 79.13 99.78 L 78.70 100.46 Z M 76.22 101.50 L 76.94 100.89 L 73.94 98.61 L 73.33 99.13 Z M 77.22 100.61 L 77.66 100.12 L 74.56 97.96 L 74.18 98.38 Z M 77.88 99.84 L 78.29 99.18 L 75.09 97.16 L 74.74 97.72 Z M 23.75 143.71 L 25.44 144.72 L 24.97 141.44 L 23.27 140.42 Z M 26.23 145.14 L 27.73 145.87 L 27.30 142.61 L 25.78 141.87 Z M 28.62 146.26 L 30.77 147.11 L 30.38 143.87 L 28.21 143.01 Z M 23.19 139.50 L 24.90 140.52 L 24.80 137.10 L 23.08 136.07 Z M 25.71 140.96 L 27.23 141.70 L 27.14 138.27 L 25.61 137.53 Z M 28.14 142.10 L 30.32 142.96 L 30.24 139.54 L 28.05 138.68 Z M 83.23 147.11 L 85.38 146.26 L 85.79 143.01 L 83.62 143.87 Z M 86.27 145.87 L 87.77 145.14 L 88.22 141.87 L 86.70 142.61 Z M 88.56 144.72 L 90.25 143.71 L 90.73 140.42 L 89.03 141.44 Z M 83.68 142.96 L 85.86 142.10 L 85.95 138.68 L 83.76 139.54 Z M 86.77 141.70 L 88.29 140.96 L 88.39 137.53 L 86.86 138.27 Z M 89.10 140.52 L 90.81 139.50 L 90.92 136.07 L 89.20 137.10 Z M 35.03 155.95 L 43.63 157.97 L 42.50 151.78 L 33.16 149.58 Z M 70.37 157.97 L 78.97 155.95 L 80.84 149.58 L 71.50 151.78 Z M 23.16 134.09 L 24.87 135.11 L 25.22 131.58 L 23.53 130.56 Z M 25.68 135.55 L 27.21 136.29 L 27.54 132.74 L 26.02 132.00 Z M 28.11 136.69 L 30.30 137.55 L 30.59 133.99 L 28.43 133.13 Z M 23.68 129.60 L 25.37 130.60 L 26.08 127.03 L 24.43 126.05 Z M 26.17 131.03 L 27.67 131.76 L 28.33 128.16 L 26.86 127.45 Z M 28.56 132.15 L 30.71 133.00 L 31.31 129.38 L 29.20 128.54 Z M 83.70 137.55 L 85.89 136.69 L 85.57 133.13 L 83.41 133.99 Z M 86.79 136.29 L 88.32 135.55 L 87.98 132.00 L 86.46 132.74 Z M 89.13 135.11 L 90.84 134.09 L 90.47 130.56 L 88.78 131.58 Z M 83.29 133.00 L 85.44 132.15 L 84.80 128.54 L 82.69 129.38 Z M 86.33 131.76 L 87.83 131.03 L 87.14 127.45 L 85.67 128.16 Z M 88.63 130.60 L 90.32 129.60 L 89.57 126.05 L 87.92 127.03 Z M 35.26 105.48 L 36.36 106.13 L 38.79 103.32 L 37.82 102.74 Z M 36.88 106.41 L 37.86 106.89 L 40.11 103.98 L 39.25 103.56 Z M 38.44 107.14 L 39.85 107.70 L 41.86 104.70 L 40.63 104.21 Z M 38.54 102.03 L 39.48 102.59 L 42.11 100.06 L 41.32 99.59 Z M 39.92 102.83 L 40.75 103.23 L 43.19 100.60 L 42.48 100.26 Z M 41.25 103.45 L 42.44 103.92 L 44.62 101.19 L 43.61 100.79 Z M 74.15 107.70 L 75.56 107.14 L 73.37 104.21 L 72.14 104.70 Z M 76.14 106.89 L 77.12 106.41 L 74.75 103.56 L 73.89 103.98 Z M 77.64 106.13 L 78.74 105.48 L 76.18 102.74 L 75.21 103.32 Z M 71.56 103.92 L 72.75 103.45 L 70.39 100.79 L 69.38 101.19 Z M 73.25 103.23 L 74.08 102.83 L 71.52 100.26 L 70.81 100.60 Z M 74.52 102.59 L 75.46 102.03 L 72.68 99.59 L 71.89 100.06 Z M 45.97 158.31 L 48.59 158.62 L 48.23 156.07 L 45.49 155.76 Z M 49.76 158.72 L 51.85 158.87 L 51.63 156.34 L 49.45 156.19 Z M 53.04 158.93 L 55.75 159.02 L 55.70 156.49 L 52.87 156.41 Z M 45.38 155.02 L 48.14 155.34 L 47.88 152.48 L 45.04 152.15 Z M 49.37 155.45 L 51.58 155.61 L 51.42 152.76 L 49.14 152.59 Z M 52.83 155.67 L 55.69 155.76 L 55.65 152.91 L 52.70 152.83 Z M 58.25 159.02 L 60.96 158.93 L 61.13 156.41 L 58.30 156.49 Z M 62.15 158.87 L 64.24 158.72 L 64.55 156.19 L 62.37 156.34 Z M 65.41 158.62 L 68.03 158.31 L 68.51 155.76 L 65.77 156.07 Z M 58.31 155.76 L 61.17 155.67 L 61.30 152.83 L 58.35 152.91 Z M 62.42 155.61 L 64.63 155.45 L 64.86 152.59 L 62.58 152.76 Z M 65.86 155.34 L 68.62 155.02 L 68.96 152.15 L 66.12 152.48 Z M 24.99 124.03 L 26.61 125.00 L 27.75 121.46 L 26.20 120.52 Z M 27.38 125.41 L 28.82 126.11 L 29.88 122.52 L 28.49 121.85 Z M 29.68 126.49 L 31.75 127.31 L 32.70 123.67 L 30.71 122.89 Z M 26.57 119.58 L 28.11 120.50 L 29.59 117.03 L 28.13 116.16 Z M 28.84 120.89 L 30.21 121.55 L 31.58 118.03 L 30.28 117.40 Z M 31.03 121.91 L 32.99 122.69 L 34.22 119.11 L 32.35 118.37 Z M 82.25 127.31 L 84.32 126.49 L 83.29 122.89 L 81.30 123.67 Z M 85.18 126.11 L 86.62 125.41 L 85.51 121.85 L 84.12 122.52 Z M 87.39 125.00 L 89.01 124.03 L 87.80 120.52 L 86.25 121.46 Z M 81.01 122.69 L 82.97 121.91 L 81.65 118.37 L 79.78 119.11 Z M 83.79 121.55 L 85.16 120.89 L 83.72 117.40 L 82.42 118.03 Z M 85.89 120.50 L 87.43 119.58 L 85.87 116.16 L 84.41 117.03 Z M 29.12 114.26 L 30.53 115.11 L 32.39 111.81 L 31.08 111.02 Z M 31.20 115.46 L 32.46 116.07 L 34.18 112.71 L 33.01 112.14 Z M 33.21 116.40 L 35.01 117.11 L 36.55 113.67 L 34.87 113.01 Z M 31.65 110.16 L 32.93 110.93 L 35.06 107.82 L 33.89 107.12 Z M 33.54 111.25 L 34.68 111.81 L 36.66 108.62 L 35.61 108.12 Z M 35.36 112.11 L 37.00 112.76 L 38.77 109.49 L 37.28 108.90 Z M 78.99 117.11 L 80.79 116.40 L 79.13 113.01 L 77.45 113.67 Z M 81.54 116.07 L 82.80 115.46 L 80.99 112.14 L 79.82 112.71 Z M 83.47 115.11 L 84.88 114.26 L 82.92 111.02 L 81.61 111.81 Z M 77.00 112.76 L 78.64 112.11 L 76.72 108.90 L 75.23 109.49 Z M 79.32 111.81 L 80.46 111.25 L 78.39 108.12 L 77.34 108.62 Z M 81.07 110.93 L 82.35 110.16 L 80.11 107.12 L 78.94 107.82 Z M 32.86 147.83 L 42.31 150.04 L 42.02 142.53 L 32.38 140.27 Z M 71.69 150.04 L 81.14 147.83 L 81.62 140.27 L 71.98 142.53 Z M 41.22 108.17 L 42.80 108.63 L 44.47 105.52 L 43.07 105.11 Z M 43.53 108.82 L 44.85 109.13 L 46.28 105.96 L 45.11 105.69 Z M 45.61 109.29 L 47.40 109.62 L 48.53 106.39 L 46.95 106.11 Z M 43.60 104.32 L 44.95 104.71 L 46.76 101.86 L 45.61 101.53 Z M 45.56 104.87 L 46.68 105.13 L 48.23 102.22 L 47.28 102.00 Z M 47.33 105.27 L 48.85 105.55 L 50.07 102.57 L 48.78 102.34 Z M 66.60 109.62 L 68.39 109.29 L 67.05 106.11 L 65.47 106.39 Z M 69.15 109.13 L 70.47 108.82 L 68.89 105.69 L 67.72 105.96 Z M 71.20 108.63 L 72.78 108.17 L 70.93 105.11 L 69.53 105.52 Z M 65.15 105.55 L 66.67 105.27 L 65.22 102.34 L 63.93 102.57 Z M 67.32 105.13 L 68.44 104.87 L 66.72 102.00 L 65.77 102.22 Z M 69.05 104.71 L 70.40 104.32 L 68.39 101.53 L 67.24 101.86 Z M 49.08 109.87 L 50.96 110.08 L 51.67 106.80 L 50.01 106.61 Z M 51.80 110.16 L 53.30 110.27 L 53.74 106.97 L 52.41 106.87 Z M 54.15 110.31 L 56.11 110.37 L 56.21 107.06 L 54.49 107.01 Z M 50.27 105.76 L 51.87 105.94 L 52.64 102.91 L 51.28 102.75 Z M 52.58 106.01 L 53.86 106.10 L 54.33 103.04 L 53.25 102.96 Z M 54.58 106.14 L 56.24 106.19 L 56.35 103.12 L 54.95 103.07 Z M 57.89 110.37 L 64.92 109.87 L 62.72 102.75 L 57.65 103.12 Z M 32.43 138.28 L 34.90 139.00 L 35.14 135.42 L 32.70 134.71 Z M 36.03 139.30 L 38.09 139.78 L 38.29 136.19 L 36.26 135.71 Z M 39.27 140.03 L 42.05 140.54 L 42.22 136.94 L 39.47 136.44 Z M 32.81 133.72 L 35.24 134.43 L 35.73 130.77 L 33.36 130.08 Z M 36.35 134.72 L 38.38 135.20 L 38.80 131.52 L 36.82 131.06 Z M 39.55 135.44 L 42.28 135.94 L 42.62 132.25 L 39.94 131.76 Z M 71.95 140.54 L 74.73 140.03 L 74.53 136.44 L 71.78 136.94 Z M 75.91 139.78 L 77.97 139.30 L 77.74 135.71 L 75.71 136.19 Z M 79.10 139.00 L 81.57 138.28 L 81.30 134.71 L 78.86 135.42 Z M 71.72 135.94 L 74.45 135.44 L 74.06 131.76 L 71.38 132.25 Z M 75.62 135.20 L 77.65 134.72 L 77.18 131.06 L 75.20 131.52 Z M 78.76 134.43 L 81.19 133.72 L 80.64 130.08 L 78.27 130.77 Z M 44.89 150.42 L 55.63 151.20 L 55.60 143.71 L 44.64 142.92 Z M 58.37 151.20 L 61.35 151.11 L 61.42 147.92 L 58.39 148.01 Z M 62.65 151.04 L 64.95 150.87 L 65.07 147.69 L 62.74 147.85 Z M 66.24 150.76 L 69.11 150.42 L 69.29 147.23 L 66.37 147.57 Z M 58.39 147.11 L 61.43 147.02 L 61.44 143.62 L 58.40 143.71 Z M 62.75 146.95 L 65.09 146.79 L 65.12 143.38 L 62.77 143.55 Z M 66.39 146.67 L 69.32 146.33 L 69.36 142.92 L 66.42 143.26 Z M 36.76 117.71 L 38.80 118.31 L 40.07 114.79 L 38.18 114.23 Z M 39.72 118.55 L 41.42 118.95 L 42.51 115.38 L 40.93 115.01 Z M 42.40 119.15 L 44.69 119.57 L 45.55 115.96 L 43.42 115.57 Z M 38.60 113.30 L 40.45 113.84 L 41.91 110.48 L 40.22 109.98 Z M 41.29 114.06 L 42.83 114.43 L 44.08 111.01 L 42.68 110.68 Z M 43.72 114.61 L 45.80 114.99 L 46.79 111.53 L 44.90 111.18 Z M 69.31 119.57 L 77.24 117.71 L 73.78 109.98 L 67.21 111.53 Z M 33.76 128.00 L 36.10 128.68 L 36.89 125.00 L 34.64 124.34 Z M 37.16 128.96 L 39.11 129.42 L 39.78 125.70 L 37.91 125.26 Z M 40.23 129.65 L 42.86 130.13 L 43.39 126.39 L 40.86 125.93 Z M 34.91 123.34 L 37.13 124.00 L 38.15 120.35 L 36.04 119.73 Z M 38.14 124.26 L 39.99 124.69 L 40.86 121.01 L 39.11 120.60 Z M 41.06 124.92 L 43.56 125.37 L 44.25 121.66 L 41.88 121.23 Z M 71.14 130.13 L 73.77 129.65 L 73.14 125.93 L 70.61 126.39 Z M 74.89 129.42 L 76.84 128.96 L 76.09 125.26 L 74.22 125.70 Z M 77.90 128.68 L 80.24 128.00 L 79.36 124.34 L 77.11 125.00 Z M 70.44 125.37 L 72.94 124.92 L 72.12 121.23 L 69.75 121.66 Z M 74.01 124.69 L 75.86 124.26 L 74.89 120.60 L 73.14 121.01 Z M 76.87 124.00 L 79.09 123.34 L 77.96 119.73 L 75.85 120.35 Z M 46.84 119.89 L 49.26 120.17 L 49.80 116.52 L 47.55 116.26 Z M 50.33 120.27 L 52.26 120.41 L 52.59 116.74 L 50.80 116.61 Z M 53.35 120.46 L 55.85 120.54 L 55.93 116.86 L 53.61 116.79 Z M 47.76 115.28 L 49.96 115.54 L 50.58 112.02 L 48.58 111.79 Z M 50.93 115.63 L 52.69 115.75 L 53.07 112.22 L 51.47 112.10 Z M 53.68 115.80 L 55.96 115.87 L 56.05 112.33 L 53.98 112.26 Z M 58.15 120.54 L 60.65 120.46 L 60.39 116.79 L 58.07 116.86 Z M 61.74 120.41 L 63.67 120.27 L 63.20 116.61 L 61.41 116.74 Z M 64.74 120.17 L 67.16 119.89 L 66.45 116.26 L 64.20 116.52 Z M 58.04 115.87 L 60.32 115.80 L 60.02 112.26 L 57.95 112.33 Z M 61.31 115.75 L 63.07 115.63 L 62.53 112.10 L 60.93 112.22 Z M 64.04 115.54 L 66.24 115.28 L 65.42 111.79 L 63.42 112.02 Z M 44.67 140.93 L 47.60 141.26 L 47.70 137.66 L 44.80 137.32 Z M 48.90 141.38 L 51.24 141.55 L 51.31 137.94 L 48.99 137.78 Z M 52.57 141.62 L 55.61 141.71 L 55.62 138.10 L 52.62 138.01 Z M 44.86 136.33 L 47.74 136.66 L 47.95 132.95 L 45.13 132.62 Z M 49.03 136.78 L 51.33 136.94 L 51.46 133.22 L 49.21 133.06 Z M 52.64 137.01 L 55.63 137.10 L 55.66 133.38 L 52.74 133.29 Z M 58.39 141.71 L 61.43 141.62 L 61.38 138.01 L 58.38 138.10 Z M 62.76 141.55 L 65.10 141.38 L 65.01 137.78 L 62.69 137.94 Z M 66.40 141.26 L 69.33 140.93 L 69.20 137.32 L 66.30 137.66 Z M 58.37 137.10 L 61.36 137.01 L 61.26 133.29 L 58.34 133.38 Z M 62.67 136.94 L 64.97 136.78 L 64.79 133.06 L 62.54 133.22 Z M 66.26 136.66 L 69.14 136.33 L 68.87 132.62 L 66.05 132.95 Z M 45.34 130.50 L 48.11 130.82 L 48.44 127.05 L 45.78 126.75 Z M 49.34 130.93 L 51.56 131.09 L 51.76 127.31 L 49.63 127.16 Z M 52.81 131.15 L 55.68 131.24 L 55.73 127.46 L 52.97 127.38 Z M 45.91 125.72 L 48.55 126.03 L 48.98 122.28 L 46.48 121.99 Z M 49.72 126.13 L 51.82 126.28 L 52.09 122.52 L 50.09 122.38 Z M 53.02 126.35 L 55.75 126.43 L 55.81 122.66 L 53.22 122.58 Z M 58.32 131.24 L 61.19 131.15 L 61.03 127.38 L 58.27 127.46 Z M 62.44 131.09 L 64.66 130.93 L 64.37 127.16 L 62.24 127.31 Z M 65.89 130.82 L 68.66 130.50 L 68.22 126.75 L 65.56 127.05 Z M 58.25 126.43 L 60.98 126.35 L 60.78 122.58 L 58.19 122.66 Z M 62.18 126.28 L 64.28 126.13 L 63.91 122.38 L 61.91 122.52 Z M 65.45 126.03 L 68.09 125.72 L 67.52 121.99 L 65.02 122.28 Z"/>
    <g id="leds" class="accent" fill="#FF9416">
      <circle cx="79.14" cy="98.23" r="0.58"/><circle cx="79.19" cy="97.60" r="0.57"/><circle cx="79.14" cy="96.97" r="0.56"/><circle cx="19.15" cy="126.01" r="0.56"/><circle cx="19.99" cy="127.07" r="0.58"/><circle cx="21.02" cy="128.11" r="0.60"/><circle cx="35.67" cy="100.09" r="0.62"/><circle cx="36.14" cy="100.69" r="0.63"/><circle cx="36.72" cy="101.27" r="0.64"/><circle cx="36.08" cy="153.53" r="0.65"/><circle cx="38.29" cy="154.10" r="0.66"/><circle cx="40.60" cy="154.60" r="0.67"/><circle cx="73.40" cy="154.60" r="0.67"/><circle cx="75.71" cy="154.10" r="0.66"/><circle cx="77.92" cy="153.53" r="0.65"/><circle cx="34.73" cy="144.81" r="0.70"/><circle cx="37.09" cy="145.40" r="0.71"/><circle cx="39.54" cy="145.94" r="0.72"/><circle cx="74.46" cy="145.94" r="0.72"/><circle cx="76.91" cy="145.40" r="0.71"/><circle cx="79.27" cy="144.81" r="0.70"/><circle cx="59.32" cy="106.58" r="0.74"/><circle cx="60.85" cy="106.49" r="0.74"/><circle cx="62.37" cy="106.36" r="0.74"/><circle cx="47.36" cy="147.09" r="0.75"/><circle cx="50.08" cy="147.33" r="0.75"/><circle cx="52.84" cy="147.49" r="0.75"/><circle cx="70.25" cy="115.13" r="0.76"/><circle cx="72.12" cy="114.72" r="0.75"/><circle cx="73.91" cy="114.27" r="0.74"/>
    </g>
    <path id="garden" class="accent" fill="#FF9416" d="M 57.00 102.29 L 58.22 102.27 L 59.44 102.22 L 60.65 102.13 L 61.83 102.01 L 63.00 101.86 L 64.13 101.67 L 65.23 101.45 L 66.29 101.20 L 67.31 100.93 L 68.27 100.62 L 69.18 100.29 L 70.03 99.93 L 70.82 99.55 L 71.54 99.14 L 72.19 98.72 L 72.76 98.28 L 73.26 97.83 L 73.68 97.36 L 74.01 96.88 L 74.27 96.39 L 74.44 95.90 L 74.52 95.41 L 74.52 94.91 L 74.44 94.41 L 74.27 93.92 L 74.01 93.43 L 73.68 92.95 L 73.26 92.48 L 72.76 92.03 L 72.19 91.59 L 71.54 91.17 L 70.82 90.77 L 70.03 90.38 L 69.18 90.03 L 68.27 89.69 L 67.31 89.39 L 66.29 89.11 L 65.23 88.86 L 64.13 88.64 L 63.00 88.45 L 61.83 88.30 L 60.65 88.18 L 59.44 88.09 L 58.22 88.04 L 57.00 88.02 L 55.78 88.04 L 54.56 88.09 L 53.35 88.18 L 52.17 88.30 L 51.00 88.45 L 49.87 88.64 L 48.77 88.86 L 47.71 89.11 L 46.69 89.39 L 45.73 89.69 L 44.82 90.03 L 43.97 90.38 L 43.18 90.77 L 42.46 91.17 L 41.81 91.59 L 41.24 92.03 L 40.74 92.48 L 40.32 92.95 L 39.99 93.43 L 39.73 93.92 L 39.56 94.41 L 39.48 94.91 L 39.48 95.41 L 39.56 95.90 L 39.73 96.39 L 39.99 96.88 L 40.32 97.36 L 40.74 97.83 L 41.24 98.28 L 41.81 98.72 L 42.46 99.14 L 43.18 99.55 L 43.97 99.93 L 44.82 100.29 L 45.73 100.62 L 46.69 100.93 L 47.71 101.20 L 48.77 101.45 L 49.87 101.67 L 51.00 101.86 L 52.17 102.01 L 53.35 102.13 L 54.56 102.22 L 55.78 102.27 Z"/>
  </g>

  <g id="inhabitants" fill="#FFFFFF">
    <!-- the tree -->
    <rect x="61.60" y="85.02" width="1.9" height="7.43"/>
    <rect x="61.60" y="77.02" width="1.9" height="9"/>
    <circle cx="62.55" cy="72.52" r="6.2"/>
    <circle cx="58.80" cy="75.82" r="4.3"/>
    <circle cx="66.40" cy="75.42" r="4.1"/>
    <!-- the person, looking out -->
    <circle cx="50.00" cy="77.22" r="1.75"/>
    <path d="M 48.40 79.42 L 51.60 79.42 L 51.30 83.82 L 48.70 83.82 Z"/>
    <rect x="48.80" y="83.42" width="1.0" height="6.32"/>
    <rect x="50.20" y="83.42" width="1.0" height="6.32"/>
  </g>

  <g id="quote" font-family="Saira Condensed, Impact, sans-serif" font-weight="700">
    <text x="104.60" y="82.39" font-size="14.81" fill="#FFFFFF">«CREO QUE ES</text>
    <text x="104.60" y="91.91" font-size="9.47" class="accent" fill="#FF9416">BASTANTE PROBABLE</text>
    <text x="0" y="0" font-size="15.01" transform="translate(114.93 116.42) rotate(-90)" fill="#FFFFFF">QUE</text>
    <text x="116.93" y="116.42" font-size="31.27" class="accent" fill="#FF9416">TODA</text>
    <text x="104.60" y="126.29" font-size="9.99" fill="#FFFFFF">LA SUPERFICIE DE LA</text>
    <text x="104.60" y="148.67" font-size="28.16" class="accent" fill="#FF9416">TIERRA</text>
    <text x="0" y="0" font-size="5.72" transform="translate(108.53 164.86) rotate(-90)" fill="#FFFFFF">ACABE</text>
    <text x="110.53" y="164.86" font-size="19.17" class="accent" fill="#FF9416">CUBIERTA</text>
    <text x="104.60" y="173.88" font-size="8.76" fill="#FFFFFF">DE PANELES SOLARES Y</text>
    <text x="104.60" y="183.80" font-size="10.05" class="accent" fill="#FF9416">CENTROS DE DATOS</text>
    <text x="173.37" y="183.80" font-size="5.53" class="accent" fill="#FF9416">.»</text>
  </g>

  <text id="attribution" x="100" y="192.6" font-family="Saira Condensed, Impact, sans-serif" font-weight="700" font-size="4.6" fill="#FFFFFF" text-anchor="middle">ILYA SUTSKEVER <tspan font-style="italic" font-size="3.6">· cofundador de OpenAI · «Ilya: the AI scientist shaping the world», The Guardian, 2023</tspan></text>
</svg>
