<svg xmlns="http://www.w3.org/2000/svg" viewBox="0 0 200 220" width="200mm" height="220mm" role="img" aria-label="QR to https://pauseai.es/?utm_campaign=tshirt">
  <title>https://pauseai.es/?utm_campaign=tshirt</title>

  <svg id="qr" x="60" y="35" width="80" height="80" viewBox="-1 -1 39 39">
    <g fill="#FFFFFF">
    <rect x="10" y="0" width="1" height="1" />
    <rect x="11" y="0" width="1" height="1" />
    <rect x="13" y="0" width="1" height="1" />
    <rect x="14" y="0" width="1" height="1" />
    <rect x="15" y="0" width="1" height="1" />
    <rect x="18" y="0" width="1" height="1" />
    <rect x="19" y="0" width="1" height="1" />
    <rect x="20" y="0" width="1" height="1" />
    <rect x="21" y="0" width="1" height="1" />
    <rect x="10" y="1" width="1" height="1" />
    <rect x="11" y="1" width="1" height="1" />
    <rect x="13" y="1" width="1" height="1" />
    <rect x="14" y="1" width="1" height="1" />
    <rect x="15" y="1" width="1" height="1" />
    <rect x="17" y="1" width="1" height="1" />
    <rect x="18" y="1" width="1" height="1" />
    <rect x="20" y="1" width="1" height="1" />
    <rect x="21" y="1" width="1" height="1" />
    <rect x="22" y="1" width="1" height="1" />
    <rect x="23" y="1" width="1" height="1" />
    <rect x="24" y="1" width="1" height="1" />
    <rect x="26" y="1" width="1" height="1" />
    <rect x="28" y="1" width="1" height="1" />
    <rect x="10" y="2" width="1" height="1" />
    <rect x="14" y="2" width="1" height="1" />
    <rect x="18" y="2" width="1" height="1" />
    <rect x="23" y="2" width="1" height="1" />
    <rect x="25" y="2" width="1" height="1" />
    <rect x="26" y="2" width="1" height="1" />
    <rect x="27" y="2" width="1" height="1" />
    <rect x="28" y="2" width="1" height="1" />
    <rect x="9" y="3" width="1" height="1" />
    <rect x="11" y="3" width="1" height="1" />
    <rect x="12" y="3" width="1" height="1" />
    <rect x="15" y="3" width="1" height="1" />
    <rect x="20" y="3" width="1" height="1" />
    <rect x="21" y="3" width="1" height="1" />
    <rect x="22" y="3" width="1" height="1" />
    <rect x="25" y="3" width="1" height="1" />
    <rect x="26" y="3" width="1" height="1" />
    <rect x="27" y="3" width="1" height="1" />
    <rect x="8" y="4" width="1" height="1" />
    <rect x="9" y="4" width="1" height="1" />
    <rect x="14" y="4" width="1" height="1" />
    <rect x="16" y="4" width="1" height="1" />
    <rect x="17" y="4" width="1" height="1" />
    <rect x="26" y="4" width="1" height="1" />
    <rect x="27" y="4" width="1" height="1" />
    <rect x="9" y="5" width="1" height="1" />
    <rect x="10" y="5" width="1" height="1" />
    <rect x="11" y="5" width="1" height="1" />
    <rect x="14" y="5" width="1" height="1" />
    <rect x="15" y="5" width="1" height="1" />
    <rect x="16" y="5" width="1" height="1" />
    <rect x="17" y="5" width="1" height="1" />
    <rect x="19" y="5" width="1" height="1" />
    <rect x="20" y="5" width="1" height="1" />
    <rect x="21" y="5" width="1" height="1" />
    <rect x="22" y="5" width="1" height="1" />
    <rect x="25" y="5" width="1" height="1" />
    <rect x="8" y="6" width="1" height="1" />
    <rect x="10" y="6" width="1" height="1" />
    <rect x="12" y="6" width="1" height="1" />
    <rect x="14" y="6" width="1" height="1" />
    <rect x="16" y="6" width="1" height="1" />
    <rect x="18" y="6" width="1" height="1" />
    <rect x="20" y="6" width="1" height="1" />
    <rect x="22" y="6" width="1" height="1" />
    <rect x="24" y="6" width="1" height="1" />
    <rect x="26" y="6" width="1" height="1" />
    <rect x="28" y="6" width="1" height="1" />
    <rect x="8" y="7" width="1" height="1" />
    <rect x="11" y="7" width="1" height="1" />
    <rect x="13" y="7" width="1" height="1" />
    <rect x="19" y="7" width="1" height="1" />
    <rect x="22" y="7" width="1" height="1" />
    <rect x="24" y="7" width="1" height="1" />
    <rect x="27" y="7" width="1" height="1" />
    <rect x="28" y="7" width="1" height="1" />
    <rect x="2" y="8" width="1" height="1" />
    <rect x="3" y="8" width="1" height="1" />
    <rect x="6" y="8" width="1" height="1" />
    <rect x="7" y="8" width="1" height="1" />
    <rect x="8" y="8" width="1" height="1" />
    <rect x="9" y="8" width="1" height="1" />
    <rect x="13" y="8" width="1" height="1" />
    <rect x="16" y="8" width="1" height="1" />
    <rect x="19" y="8" width="1" height="1" />
    <rect x="20" y="8" width="1" height="1" />
    <rect x="25" y="8" width="1" height="1" />
    <rect x="27" y="8" width="1" height="1" />
    <rect x="28" y="8" width="1" height="1" />
    <rect x="29" y="8" width="1" height="1" />
    <rect x="30" y="8" width="1" height="1" />
    <rect x="32" y="8" width="1" height="1" />
    <rect x="0" y="9" width="1" height="1" />
    <rect x="4" y="9" width="1" height="1" />
    <rect x="7" y="9" width="1" height="1" />
    <rect x="8" y="9" width="1" height="1" />
    <rect x="9" y="9" width="1" height="1" />
    <rect x="10" y="9" width="1" height="1" />
    <rect x="13" y="9" width="1" height="1" />
    <rect x="14" y="9" width="1" height="1" />
    <rect x="15" y="9" width="1" height="1" />
    <rect x="17" y="9" width="1" height="1" />
    <rect x="18" y="9" width="1" height="1" />
    <rect x="20" y="9" width="1" height="1" />
    <rect x="21" y="9" width="1" height="1" />
    <rect x="22" y="9" width="1" height="1" />
    <rect x="25" y="9" width="1" height="1" />
    <rect x="26" y="9" width="1" height="1" />
    <rect x="27" y="9" width="1" height="1" />
    <rect x="28" y="9" width="1" height="1" />
    <rect x="29" y="9" width="1" height="1" />
    <rect x="31" y="9" width="1" height="1" />
    <rect x="1" y="10" width="1" height="1" />
    <rect x="2" y="10" width="1" height="1" />
    <rect x="6" y="10" width="1" height="1" />
    <rect x="8" y="10" width="1" height="1" />
    <rect x="11" y="10" width="1" height="1" />
    <rect x="13" y="10" width="1" height="1" />
    <rect x="16" y="10" width="1" height="1" />
    <rect x="20" y="10" width="1" height="1" />
    <rect x="21" y="10" width="1" height="1" />
    <rect x="22" y="10" width="1" height="1" />
    <rect x="25" y="10" width="1" height="1" />
    <rect x="27" y="10" width="1" height="1" />
    <rect x="29" y="10" width="1" height="1" />
    <rect x="31" y="10" width="1" height="1" />
    <rect x="32" y="10" width="1" height="1" />
    <rect x="3" y="11" width="1" height="1" />
    <rect x="7" y="11" width="1" height="1" />
    <rect x="8" y="11" width="1" height="1" />
    <rect x="11" y="11" width="1" height="1" />
    <rect x="14" y="11" width="1" height="1" />
    <rect x="17" y="11" width="1" height="1" />
    <rect x="19" y="11" width="1" height="1" />
    <rect x="20" y="11" width="1" height="1" />
    <rect x="22" y="11" width="1" height="1" />
    <rect x="25" y="11" width="1" height="1" />
    <rect x="26" y="11" width="1" height="1" />
    <rect x="27" y="11" width="1" height="1" />
    <rect x="31" y="11" width="1" height="1" />
    <rect x="32" y="11" width="1" height="1" />
    <rect x="33" y="11" width="1" height="1" />
    <rect x="34" y="11" width="1" height="1" />
    <rect x="0" y="12" width="1" height="1" />
    <rect x="4" y="12" width="1" height="1" />
    <rect x="6" y="12" width="1" height="1" />
    <rect x="9" y="12" width="1" height="1" />
    <rect x="10" y="12" width="1" height="1" />
    <rect x="12" y="12" width="1" height="1" />
    <rect x="14" y="12" width="1" height="1" />
    <rect x="15" y="12" width="1" height="1" />
    <rect x="16" y="12" width="1" height="1" />
    <rect x="18" y="12" width="1" height="1" />
    <rect x="24" y="12" width="1" height="1" />
    <rect x="25" y="12" width="1" height="1" />
    <rect x="26" y="12" width="1" height="1" />
    <rect x="29" y="12" width="1" height="1" />
    <rect x="30" y="12" width="1" height="1" />
    <rect x="32" y="12" width="1" height="1" />
    <rect x="34" y="12" width="1" height="1" />
    <rect x="35" y="12" width="1" height="1" />
    <rect x="36" y="12" width="1" height="1" />
    <rect x="0" y="13" width="1" height="1" />
    <rect x="2" y="13" width="1" height="1" />
    <rect x="3" y="13" width="1" height="1" />
    <rect x="4" y="13" width="1" height="1" />
    <rect x="8" y="13" width="1" height="1" />
    <rect x="9" y="13" width="1" height="1" />
    <rect x="12" y="13" width="1" height="1" />
    <rect x="15" y="13" width="1" height="1" />
    <rect x="16" y="13" width="1" height="1" />
    <rect x="19" y="13" width="1" height="1" />
    <rect x="20" y="13" width="1" height="1" />
    <rect x="21" y="13" width="1" height="1" />
    <rect x="23" y="13" width="1" height="1" />
    <rect x="24" y="13" width="1" height="1" />
    <rect x="25" y="13" width="1" height="1" />
    <rect x="27" y="13" width="1" height="1" />
    <rect x="28" y="13" width="1" height="1" />
    <rect x="30" y="13" width="1" height="1" />
    <rect x="31" y="13" width="1" height="1" />
    <rect x="32" y="13" width="1" height="1" />
    <rect x="34" y="13" width="1" height="1" />
    <rect x="36" y="13" width="1" height="1" />
    <rect x="4" y="14" width="1" height="1" />
    <rect x="5" y="14" width="1" height="1" />
    <rect x="6" y="14" width="1" height="1" />
    <rect x="10" y="14" width="1" height="1" />
    <rect x="13" y="14" width="1" height="1" />
    <rect x="15" y="14" width="1" height="1" />
    <rect x="17" y="14" width="1" height="1" />
    <rect x="19" y="14" width="1" height="1" />
    <rect x="21" y="14" width="1" height="1" />
    <rect x="26" y="14" width="1" height="1" />
    <rect x="28" y="14" width="1" height="1" />
    <rect x="30" y="14" width="1" height="1" />
    <rect x="32" y="14" width="1" height="1" />
    <rect x="34" y="14" width="1" height="1" />
    <rect x="35" y="14" width="1" height="1" />
    <rect x="0" y="15" width="1" height="1" />
    <rect x="4" y="15" width="1" height="1" />
    <rect x="7" y="15" width="1" height="1" />
    <rect x="8" y="15" width="1" height="1" />
    <rect x="9" y="15" width="1" height="1" />
    <rect x="10" y="15" width="1" height="1" />
    <rect x="12" y="15" width="1" height="1" />
    <rect x="13" y="15" width="1" height="1" />
    <rect x="22" y="15" width="1" height="1" />
    <rect x="23" y="15" width="1" height="1" />
    <rect x="26" y="15" width="1" height="1" />
    <rect x="27" y="15" width="1" height="1" />
    <rect x="29" y="15" width="1" height="1" />
    <rect x="30" y="15" width="1" height="1" />
    <rect x="35" y="15" width="1" height="1" />
    <rect x="36" y="15" width="1" height="1" />
    <rect x="0" y="16" width="1" height="1" />
    <rect x="4" y="16" width="1" height="1" />
    <rect x="6" y="16" width="1" height="1" />
    <rect x="8" y="16" width="1" height="1" />
    <rect x="9" y="16" width="1" height="1" />
    <rect x="10" y="16" width="1" height="1" />
    <rect x="11" y="16" width="1" height="1" />
    <rect x="13" y="16" width="1" height="1" />
    <rect x="14" y="16" width="1" height="1" />
    <rect x="22" y="16" width="1" height="1" />
    <rect x="24" y="16" width="1" height="1" />
    <rect x="25" y="16" width="1" height="1" />
    <rect x="26" y="16" width="1" height="1" />
    <rect x="28" y="16" width="1" height="1" />
    <rect x="29" y="16" width="1" height="1" />
    <rect x="33" y="16" width="1" height="1" />
    <rect x="34" y="16" width="1" height="1" />
    <rect x="2" y="17" width="1" height="1" />
    <rect x="3" y="17" width="1" height="1" />
    <rect x="4" y="17" width="1" height="1" />
    <rect x="9" y="17" width="1" height="1" />
    <rect x="10" y="17" width="1" height="1" />
    <rect x="11" y="17" width="1" height="1" />
    <rect x="13" y="17" width="1" height="1" />
    <rect x="23" y="17" width="1" height="1" />
    <rect x="26" y="17" width="1" height="1" />
    <rect x="27" y="17" width="1" height="1" />
    <rect x="30" y="17" width="1" height="1" />
    <rect x="34" y="17" width="1" height="1" />
    <rect x="36" y="17" width="1" height="1" />
    <rect x="0" y="18" width="1" height="1" />
    <rect x="2" y="18" width="1" height="1" />
    <rect x="4" y="18" width="1" height="1" />
    <rect x="6" y="18" width="1" height="1" />
    <rect x="7" y="18" width="1" height="1" />
    <rect x="8" y="18" width="1" height="1" />
    <rect x="10" y="18" width="1" height="1" />
    <rect x="22" y="18" width="1" height="1" />
    <rect x="23" y="18" width="1" height="1" />
    <rect x="27" y="18" width="1" height="1" />
    <rect x="28" y="18" width="1" height="1" />
    <rect x="30" y="18" width="1" height="1" />
    <rect x="31" y="18" width="1" height="1" />
    <rect x="34" y="18" width="1" height="1" />
    <rect x="35" y="18" width="1" height="1" />
    <rect x="36" y="18" width="1" height="1" />
    <rect x="2" y="19" width="1" height="1" />
    <rect x="3" y="19" width="1" height="1" />
    <rect x="9" y="19" width="1" height="1" />
    <rect x="10" y="19" width="1" height="1" />
    <rect x="12" y="19" width="1" height="1" />
    <rect x="13" y="19" width="1" height="1" />
    <rect x="24" y="19" width="1" height="1" />
    <rect x="28" y="19" width="1" height="1" />
    <rect x="32" y="19" width="1" height="1" />
    <rect x="33" y="19" width="1" height="1" />
    <rect x="36" y="19" width="1" height="1" />
    <rect x="1" y="20" width="1" height="1" />
    <rect x="2" y="20" width="1" height="1" />
    <rect x="6" y="20" width="1" height="1" />
    <rect x="7" y="20" width="1" height="1" />
    <rect x="8" y="20" width="1" height="1" />
    <rect x="9" y="20" width="1" height="1" />
    <rect x="10" y="20" width="1" height="1" />
    <rect x="13" y="20" width="1" height="1" />
    <rect x="22" y="20" width="1" height="1" />
    <rect x="23" y="20" width="1" height="1" />
    <rect x="26" y="20" width="1" height="1" />
    <rect x="28" y="20" width="1" height="1" />
    <rect x="29" y="20" width="1" height="1" />
    <rect x="32" y="20" width="1" height="1" />
    <rect x="35" y="20" width="1" height="1" />
    <rect x="3" y="21" width="1" height="1" />
    <rect x="4" y="21" width="1" height="1" />
    <rect x="5" y="21" width="1" height="1" />
    <rect x="9" y="21" width="1" height="1" />
    <rect x="12" y="21" width="1" height="1" />
    <rect x="22" y="21" width="1" height="1" />
    <rect x="24" y="21" width="1" height="1" />
    <rect x="25" y="21" width="1" height="1" />
    <rect x="31" y="21" width="1" height="1" />
    <rect x="34" y="21" width="1" height="1" />
    <rect x="35" y="21" width="1" height="1" />
    <rect x="2" y="22" width="1" height="1" />
    <rect x="6" y="22" width="1" height="1" />
    <rect x="9" y="22" width="1" height="1" />
    <rect x="10" y="22" width="1" height="1" />
    <rect x="11" y="22" width="1" height="1" />
    <rect x="13" y="22" width="1" height="1" />
    <rect x="15" y="22" width="1" height="1" />
    <rect x="17" y="22" width="1" height="1" />
    <rect x="20" y="22" width="1" height="1" />
    <rect x="21" y="22" width="1" height="1" />
    <rect x="22" y="22" width="1" height="1" />
    <rect x="25" y="22" width="1" height="1" />
    <rect x="29" y="22" width="1" height="1" />
    <rect x="32" y="22" width="1" height="1" />
    <rect x="33" y="22" width="1" height="1" />
    <rect x="1" y="23" width="1" height="1" />
    <rect x="2" y="23" width="1" height="1" />
    <rect x="5" y="23" width="1" height="1" />
    <rect x="7" y="23" width="1" height="1" />
    <rect x="9" y="23" width="1" height="1" />
    <rect x="10" y="23" width="1" height="1" />
    <rect x="11" y="23" width="1" height="1" />
    <rect x="15" y="23" width="1" height="1" />
    <rect x="16" y="23" width="1" height="1" />
    <rect x="20" y="23" width="1" height="1" />
    <rect x="21" y="23" width="1" height="1" />
    <rect x="22" y="23" width="1" height="1" />
    <rect x="23" y="23" width="1" height="1" />
    <rect x="24" y="23" width="1" height="1" />
    <rect x="27" y="23" width="1" height="1" />
    <rect x="28" y="23" width="1" height="1" />
    <rect x="30" y="23" width="1" height="1" />
    <rect x="33" y="23" width="1" height="1" />
    <rect x="34" y="23" width="1" height="1" />
    <rect x="35" y="23" width="1" height="1" />
    <rect x="0" y="24" width="1" height="1" />
    <rect x="2" y="24" width="1" height="1" />
    <rect x="6" y="24" width="1" height="1" />
    <rect x="7" y="24" width="1" height="1" />
    <rect x="9" y="24" width="1" height="1" />
    <rect x="13" y="24" width="1" height="1" />
    <rect x="14" y="24" width="1" height="1" />
    <rect x="15" y="24" width="1" height="1" />
    <rect x="19" y="24" width="1" height="1" />
    <rect x="20" y="24" width="1" height="1" />
    <rect x="24" y="24" width="1" height="1" />
    <rect x="26" y="24" width="1" height="1" />
    <rect x="29" y="24" width="1" height="1" />
    <rect x="30" y="24" width="1" height="1" />
    <rect x="32" y="24" width="1" height="1" />
    <rect x="35" y="24" width="1" height="1" />
    <rect x="2" y="25" width="1" height="1" />
    <rect x="3" y="25" width="1" height="1" />
    <rect x="4" y="25" width="1" height="1" />
    <rect x="9" y="25" width="1" height="1" />
    <rect x="14" y="25" width="1" height="1" />
    <rect x="15" y="25" width="1" height="1" />
    <rect x="16" y="25" width="1" height="1" />
    <rect x="18" y="25" width="1" height="1" />
    <rect x="23" y="25" width="1" height="1" />
    <rect x="24" y="25" width="1" height="1" />
    <rect x="26" y="25" width="1" height="1" />
    <rect x="30" y="25" width="1" height="1" />
    <rect x="31" y="25" width="1" height="1" />
    <rect x="32" y="25" width="1" height="1" />
    <rect x="36" y="25" width="1" height="1" />
    <rect x="1" y="26" width="1" height="1" />
    <rect x="3" y="26" width="1" height="1" />
    <rect x="6" y="26" width="1" height="1" />
    <rect x="7" y="26" width="1" height="1" />
    <rect x="8" y="26" width="1" height="1" />
    <rect x="10" y="26" width="1" height="1" />
    <rect x="16" y="26" width="1" height="1" />
    <rect x="17" y="26" width="1" height="1" />
    <rect x="19" y="26" width="1" height="1" />
    <rect x="23" y="26" width="1" height="1" />
    <rect x="25" y="26" width="1" height="1" />
    <rect x="28" y="26" width="1" height="1" />
    <rect x="31" y="26" width="1" height="1" />
    <rect x="33" y="26" width="1" height="1" />
    <rect x="35" y="26" width="1" height="1" />
    <rect x="0" y="27" width="1" height="1" />
    <rect x="4" y="27" width="1" height="1" />
    <rect x="5" y="27" width="1" height="1" />
    <rect x="8" y="27" width="1" height="1" />
    <rect x="10" y="27" width="1" height="1" />
    <rect x="11" y="27" width="1" height="1" />
    <rect x="12" y="27" width="1" height="1" />
    <rect x="15" y="27" width="1" height="1" />
    <rect x="18" y="27" width="1" height="1" />
    <rect x="19" y="27" width="1" height="1" />
    <rect x="21" y="27" width="1" height="1" />
    <rect x="23" y="27" width="1" height="1" />
    <rect x="27" y="27" width="1" height="1" />
    <rect x="28" y="27" width="1" height="1" />
    <rect x="29" y="27" width="1" height="1" />
    <rect x="32" y="27" width="1" height="1" />
    <rect x="35" y="27" width="1" height="1" />
    <rect x="36" y="27" width="1" height="1" />
    <rect x="2" y="28" width="1" height="1" />
    <rect x="6" y="28" width="1" height="1" />
    <rect x="7" y="28" width="1" height="1" />
    <rect x="8" y="28" width="1" height="1" />
    <rect x="9" y="28" width="1" height="1" />
    <rect x="11" y="28" width="1" height="1" />
    <rect x="13" y="28" width="1" height="1" />
    <rect x="16" y="28" width="1" height="1" />
    <rect x="17" y="28" width="1" height="1" />
    <rect x="19" y="28" width="1" height="1" />
    <rect x="21" y="28" width="1" height="1" />
    <rect x="22" y="28" width="1" height="1" />
    <rect x="24" y="28" width="1" height="1" />
    <rect x="25" y="28" width="1" height="1" />
    <rect x="28" y="28" width="1" height="1" />
    <rect x="29" y="28" width="1" height="1" />
    <rect x="30" y="28" width="1" height="1" />
    <rect x="31" y="28" width="1" height="1" />
    <rect x="32" y="28" width="1" height="1" />
    <rect x="34" y="28" width="1" height="1" />
    <rect x="8" y="29" width="1" height="1" />
    <rect x="11" y="29" width="1" height="1" />
    <rect x="12" y="29" width="1" height="1" />
    <rect x="13" y="29" width="1" height="1" />
    <rect x="14" y="29" width="1" height="1" />
    <rect x="16" y="29" width="1" height="1" />
    <rect x="17" y="29" width="1" height="1" />
    <rect x="20" y="29" width="1" height="1" />
    <rect x="22" y="29" width="1" height="1" />
    <rect x="23" y="29" width="1" height="1" />
    <rect x="27" y="29" width="1" height="1" />
    <rect x="28" y="29" width="1" height="1" />
    <rect x="32" y="29" width="1" height="1" />
    <rect x="33" y="29" width="1" height="1" />
    <rect x="34" y="29" width="1" height="1" />
    <rect x="35" y="29" width="1" height="1" />
    <rect x="36" y="29" width="1" height="1" />
    <rect x="8" y="30" width="1" height="1" />
    <rect x="10" y="30" width="1" height="1" />
    <rect x="14" y="30" width="1" height="1" />
    <rect x="16" y="30" width="1" height="1" />
    <rect x="19" y="30" width="1" height="1" />
    <rect x="21" y="30" width="1" height="1" />
    <rect x="22" y="30" width="1" height="1" />
    <rect x="24" y="30" width="1" height="1" />
    <rect x="25" y="30" width="1" height="1" />
    <rect x="26" y="30" width="1" height="1" />
    <rect x="28" y="30" width="1" height="1" />
    <rect x="30" y="30" width="1" height="1" />
    <rect x="32" y="30" width="1" height="1" />
    <rect x="33" y="30" width="1" height="1" />
    <rect x="35" y="30" width="1" height="1" />
    <rect x="36" y="30" width="1" height="1" />
    <rect x="10" y="31" width="1" height="1" />
    <rect x="11" y="31" width="1" height="1" />
    <rect x="13" y="31" width="1" height="1" />
    <rect x="14" y="31" width="1" height="1" />
    <rect x="16" y="31" width="1" height="1" />
    <rect x="19" y="31" width="1" height="1" />
    <rect x="22" y="31" width="1" height="1" />
    <rect x="24" y="31" width="1" height="1" />
    <rect x="27" y="31" width="1" height="1" />
    <rect x="28" y="31" width="1" height="1" />
    <rect x="32" y="31" width="1" height="1" />
    <rect x="33" y="31" width="1" height="1" />
    <rect x="9" y="32" width="1" height="1" />
    <rect x="11" y="32" width="1" height="1" />
    <rect x="12" y="32" width="1" height="1" />
    <rect x="15" y="32" width="1" height="1" />
    <rect x="18" y="32" width="1" height="1" />
    <rect x="22" y="32" width="1" height="1" />
    <rect x="23" y="32" width="1" height="1" />
    <rect x="24" y="32" width="1" height="1" />
    <rect x="26" y="32" width="1" height="1" />
    <rect x="28" y="32" width="1" height="1" />
    <rect x="29" y="32" width="1" height="1" />
    <rect x="30" y="32" width="1" height="1" />
    <rect x="31" y="32" width="1" height="1" />
    <rect x="32" y="32" width="1" height="1" />
    <rect x="33" y="32" width="1" height="1" />
    <rect x="8" y="33" width="1" height="1" />
    <rect x="15" y="33" width="1" height="1" />
    <rect x="17" y="33" width="1" height="1" />
    <rect x="20" y="33" width="1" height="1" />
    <rect x="21" y="33" width="1" height="1" />
    <rect x="24" y="33" width="1" height="1" />
    <rect x="26" y="33" width="1" height="1" />
    <rect x="30" y="33" width="1" height="1" />
    <rect x="32" y="33" width="1" height="1" />
    <rect x="8" y="34" width="1" height="1" />
    <rect x="9" y="34" width="1" height="1" />
    <rect x="10" y="34" width="1" height="1" />
    <rect x="11" y="34" width="1" height="1" />
    <rect x="12" y="34" width="1" height="1" />
    <rect x="13" y="34" width="1" height="1" />
    <rect x="14" y="34" width="1" height="1" />
    <rect x="15" y="34" width="1" height="1" />
    <rect x="17" y="34" width="1" height="1" />
    <rect x="19" y="34" width="1" height="1" />
    <rect x="20" y="34" width="1" height="1" />
    <rect x="23" y="34" width="1" height="1" />
    <rect x="24" y="34" width="1" height="1" />
    <rect x="25" y="34" width="1" height="1" />
    <rect x="27" y="34" width="1" height="1" />
    <rect x="28" y="34" width="1" height="1" />
    <rect x="30" y="34" width="1" height="1" />
    <rect x="31" y="34" width="1" height="1" />
    <rect x="32" y="34" width="1" height="1" />
    <rect x="33" y="34" width="1" height="1" />
    <rect x="35" y="34" width="1" height="1" />
    <rect x="10" y="35" width="1" height="1" />
    <rect x="11" y="35" width="1" height="1" />
    <rect x="15" y="35" width="1" height="1" />
    <rect x="17" y="35" width="1" height="1" />
    <rect x="20" y="35" width="1" height="1" />
    <rect x="21" y="35" width="1" height="1" />
    <rect x="25" y="35" width="1" height="1" />
    <rect x="26" y="35" width="1" height="1" />
    <rect x="29" y="35" width="1" height="1" />
    <rect x="30" y="35" width="1" height="1" />
    <rect x="32" y="35" width="1" height="1" />
    <rect x="33" y="35" width="1" height="1" />
    <rect x="34" y="35" width="1" height="1" />
    <rect x="15" y="36" width="1" height="1" />
    <rect x="16" y="36" width="1" height="1" />
    <rect x="19" y="36" width="1" height="1" />
    <rect x="20" y="36" width="1" height="1" />
    <rect x="21" y="36" width="1" height="1" />
    <rect x="22" y="36" width="1" height="1" />
    <rect x="24" y="36" width="1" height="1" />
    <rect x="25" y="36" width="1" height="1" />
    <rect x="26" y="36" width="1" height="1" />
    <rect x="31" y="36" width="1" height="1" />
    <rect x="32" y="36" width="1" height="1" />
    <rect x="33" y="36" width="1" height="1" />
    <rect x="34" y="36" width="1" height="1" />
    <rect x="35" y="36" width="1" height="1" />
    <rect x="36" y="36" width="1" height="1" />
  </g>
  <g transform="translate(0 0)">
    <path fill="#FFFFFF" fill-rule="evenodd" d="M0,0 H7 V7 H0 Z M1,1 H6 V6 H1 Z" />
    <rect x="2" y="2" width="3" height="3" fill="#FFFFFF" />
  </g>
  <g transform="translate(30 0)">
    <path fill="#FFFFFF" fill-rule="evenodd" d="M0,0 H7 V7 H0 Z M1,1 H6 V6 H1 Z" />
    <rect x="2" y="2" width="3" height="3" fill="#FFFFFF" />
  </g>
  <g transform="translate(0 30)">
    <path fill="#FFFFFF" fill-rule="evenodd" d="M0,0 H7 V7 H0 Z M1,1 H6 V6 H1 Z" />
    <rect x="2" y="2" width="3" height="3" fill="#FFFFFF" />
  </g>
  <svg x="15.5" y="15.5" width="6" height="6" viewBox="0 0 905 929"><defs><mask id="es-mark-cutouts" maskUnits="userSpaceOnUse"><rect x="0" y="0" width="905.0" height="929.0" fill="white" /><path fill="black" d="M 542.42 186.22 A 0.32 0.31 -76.6 0 1 542.83 185.96 L 585.37 200.27 A 0.70 0.69 -77.1 0 1 585.84 201.03 C 581.81 230.98 563.22 258.02 533.94 267.94 C 523.52 271.47 512.87 271.20 501.97 269.39 Q 487.03 266.90 473.10 257.93 C 461.28 250.32 454.11 245.45 440.80 237.97 C 433.35 233.79 420.34 230.80 411.51 233.12 C 398.63 236.50 391.50 247.18 389.91 259.94 A 0.32 0.32 0.0 0 1 389.49 260.20 L 346.88 245.87 A 0.53 0.52 -76.6 0 1 346.53 245.30 C 350.25 216.96 368.24 189.40 395.55 178.78 C 411.33 172.65 430.23 174.07 445.15 181.62 Q 459.09 188.68 465.77 193.00 C 473.23 197.81 484.38 205.36 493.30 208.95 C 501.34 212.18 512.37 214.79 520.70 212.66 C 533.23 209.46 540.93 198.61 542.42 186.22 Z" /><rect fill="black" x="317.63" y="308.56" width="103.96" height="363.58" rx="0.41" /><rect fill="black" x="507.17" y="308.54" width="103.96" height="363.60" rx="0.56" /></mask></defs><circle cx="452.5" cy="464.5" r="452.5" fill="#FFFFFF" mask="url(#es-mark-cutouts)" /></svg>
  </svg>

  <g transform="translate(68.5300 145.0000) scale(0.015000 -0.015000)"><g fill="#FFFFFF"><path d="M52 688H279Q352 688 389.5 662.0Q427 636 440.0 586.5Q453 537 453 455Q453 376 441.0 326.5Q429 277 391.0 248.5Q353 220 278 220H190V0H52ZM244 341Q278 341 292.0 349.0Q306 357 310.5 379.5Q315 402 315 455Q315 508 310.5 530.0Q306 552 292.5 559.5Q279 567 245 567H190V341Z" /><path d="M353 0 326 141H172L145 0H8L150 688H351L493 0ZM252 558H246L192 260H305Z" transform="translate(475 0)" /><path d="M458 688V305Q458 169 446.5 107.5Q435 46 392.5 19.0Q350 -8 253 -8Q156 -8 113.5 19.0Q71 46 59.5 107.5Q48 169 48 305V688H185V259Q185 186 188.5 158.5Q192 131 205.5 122.0Q219 113 253 113Q287 113 300.0 122.0Q313 131 316.5 158.0Q320 185 320 259V688Z" transform="translate(976 0)" /><path d="M42 9V121Q144 113 183 113Q218 113 236.0 117.0Q254 121 263 131Q271 139 273.5 153.5Q276 168 276 195Q276 232 272.0 247.5Q268 263 255.5 270.5Q243 278 212 284L118 301Q68 310 49.0 356.0Q30 402 30 489Q30 574 54.5 619.0Q79 664 122.0 680.0Q165 696 231 696Q277 696 319.5 690.0Q362 684 389 678V566Q335 575 268 575Q232 575 212.5 572.0Q193 569 184 561Q173 553 170.0 538.0Q167 523 167 494Q167 463 170.5 449.0Q174 435 183.0 429.0Q192 423 214 419L302 403Q337 398 361.5 381.5Q386 365 400 327Q414 287 414 214Q414 119 391.0 71.0Q368 23 327.5 7.5Q287 -8 221 -8Q179 -8 129.5 -3.5Q80 1 42 9Z" transform="translate(1482 0)" /><path d="M52 0V688H386V567H190V408H359V287H190V121H386V0Z" transform="translate(1925 0)" /><path d="M353 0 326 141H172L145 0H8L150 688H351L493 0ZM252 558H246L192 260H305Z" transform="translate(2346 0)" /><path d="M53 0V688H190V0Z" transform="translate(2847 0)" /><path d="M51 0V132H192V0Z" transform="translate(3090 0)" /><path d="M52 0V688H386V567H190V408H359V287H190V121H386V0Z" transform="translate(3332 0)" /><path d="M42 9V121Q144 113 183 113Q218 113 236.0 117.0Q254 121 263 131Q271 139 273.5 153.5Q276 168 276 195Q276 232 272.0 247.5Q268 263 255.5 270.5Q243 278 212 284L118 301Q68 310 49.0 356.0Q30 402 30 489Q30 574 54.5 619.0Q79 664 122.0 680.0Q165 696 231 696Q277 696 319.5 690.0Q362 684 389 678V566Q335 575 268 575Q232 575 212.5 572.0Q193 569 184 561Q173 553 170.0 538.0Q167 523 167 494Q167 463 170.5 449.0Q174 435 183.0 429.0Q192 423 214 419L302 403Q337 398 361.5 381.5Q386 365 400 327Q414 287 414 214Q414 119 391.0 71.0Q368 23 327.5 7.5Q287 -8 221 -8Q179 -8 129.5 -3.5Q80 1 42 9Z" transform="translate(3753 0)" /></g></g></svg>