<svg xmlns="http://www.w3.org/2000/svg" viewBox="0 0 200 220" width="200mm" height="220mm" role="img" aria-label="QR to https://pauseai.info">
  <title>https://pauseai.info (black tee)</title>

  <rect x="55" y="30" width="90" height="90" fill="#FFFFFF" stroke="#FF9416" stroke-width="4" />

  <svg id="qr" x="60" y="35" width="80" height="80" viewBox="-1 -1 31 31">
    <rect x="-1" y="-1" width="31" height="31" fill="#FFFFFF" />
  <g fill="#FF9416">
    <rect x="8" y="0" width="1" height="1" />
    <rect x="10" y="0" width="1" height="1" />
    <rect x="11" y="0" width="1" height="1" />
    <rect x="12" y="0" width="1" height="1" />
    <rect x="16" y="0" width="1" height="1" />
    <rect x="18" y="0" width="1" height="1" />
    <rect x="20" y="0" width="1" height="1" />
    <rect x="8" y="1" width="1" height="1" />
    <rect x="11" y="1" width="1" height="1" />
    <rect x="12" y="1" width="1" height="1" />
    <rect x="13" y="1" width="1" height="1" />
    <rect x="14" y="1" width="1" height="1" />
    <rect x="16" y="1" width="1" height="1" />
    <rect x="19" y="1" width="1" height="1" />
    <rect x="8" y="2" width="1" height="1" />
    <rect x="10" y="2" width="1" height="1" />
    <rect x="13" y="2" width="1" height="1" />
    <rect x="19" y="2" width="1" height="1" />
    <rect x="20" y="2" width="1" height="1" />
    <rect x="9" y="3" width="1" height="1" />
    <rect x="11" y="3" width="1" height="1" />
    <rect x="12" y="3" width="1" height="1" />
    <rect x="13" y="3" width="1" height="1" />
    <rect x="15" y="3" width="1" height="1" />
    <rect x="16" y="3" width="1" height="1" />
    <rect x="17" y="3" width="1" height="1" />
    <rect x="19" y="3" width="1" height="1" />
    <rect x="20" y="3" width="1" height="1" />
    <rect x="9" y="4" width="1" height="1" />
    <rect x="15" y="4" width="1" height="1" />
    <rect x="19" y="4" width="1" height="1" />
    <rect x="20" y="4" width="1" height="1" />
    <rect x="8" y="5" width="1" height="1" />
    <rect x="9" y="5" width="1" height="1" />
    <rect x="12" y="5" width="1" height="1" />
    <rect x="13" y="5" width="1" height="1" />
    <rect x="14" y="5" width="1" height="1" />
    <rect x="18" y="5" width="1" height="1" />
    <rect x="20" y="5" width="1" height="1" />
    <rect x="8" y="6" width="1" height="1" />
    <rect x="10" y="6" width="1" height="1" />
    <rect x="12" y="6" width="1" height="1" />
    <rect x="14" y="6" width="1" height="1" />
    <rect x="16" y="6" width="1" height="1" />
    <rect x="18" y="6" width="1" height="1" />
    <rect x="20" y="6" width="1" height="1" />
    <rect x="8" y="7" width="1" height="1" />
    <rect x="9" y="7" width="1" height="1" />
    <rect x="11" y="7" width="1" height="1" />
    <rect x="12" y="7" width="1" height="1" />
    <rect x="2" y="8" width="1" height="1" />
    <rect x="3" y="8" width="1" height="1" />
    <rect x="4" y="8" width="1" height="1" />
    <rect x="6" y="8" width="1" height="1" />
    <rect x="8" y="8" width="1" height="1" />
    <rect x="9" y="8" width="1" height="1" />
    <rect x="12" y="8" width="1" height="1" />
    <rect x="15" y="8" width="1" height="1" />
    <rect x="16" y="8" width="1" height="1" />
    <rect x="18" y="8" width="1" height="1" />
    <rect x="20" y="8" width="1" height="1" />
    <rect x="21" y="8" width="1" height="1" />
    <rect x="22" y="8" width="1" height="1" />
    <rect x="23" y="8" width="1" height="1" />
    <rect x="26" y="8" width="1" height="1" />
    <rect x="27" y="8" width="1" height="1" />
    <rect x="28" y="8" width="1" height="1" />
    <rect x="2" y="9" width="1" height="1" />
    <rect x="3" y="9" width="1" height="1" />
    <rect x="4" y="9" width="1" height="1" />
    <rect x="5" y="9" width="1" height="1" />
    <rect x="7" y="9" width="1" height="1" />
    <rect x="8" y="9" width="1" height="1" />
    <rect x="9" y="9" width="1" height="1" />
    <rect x="11" y="9" width="1" height="1" />
    <rect x="14" y="9" width="1" height="1" />
    <rect x="16" y="9" width="1" height="1" />
    <rect x="17" y="9" width="1" height="1" />
    <rect x="21" y="9" width="1" height="1" />
    <rect x="22" y="9" width="1" height="1" />
    <rect x="23" y="9" width="1" height="1" />
    <rect x="24" y="9" width="1" height="1" />
    <rect x="28" y="9" width="1" height="1" />
    <rect x="0" y="10" width="1" height="1" />
    <rect x="2" y="10" width="1" height="1" />
    <rect x="5" y="10" width="1" height="1" />
    <rect x="6" y="10" width="1" height="1" />
    <rect x="8" y="10" width="1" height="1" />
    <rect x="10" y="10" width="1" height="1" />
    <rect x="13" y="10" width="1" height="1" />
    <rect x="18" y="10" width="1" height="1" />
    <rect x="20" y="10" width="1" height="1" />
    <rect x="21" y="10" width="1" height="1" />
    <rect x="22" y="10" width="1" height="1" />
    <rect x="25" y="10" width="1" height="1" />
    <rect x="0" y="11" width="1" height="1" />
    <rect x="1" y="11" width="1" height="1" />
    <rect x="2" y="11" width="1" height="1" />
    <rect x="4" y="11" width="1" height="1" />
    <rect x="7" y="11" width="1" height="1" />
    <rect x="12" y="11" width="1" height="1" />
    <rect x="13" y="11" width="1" height="1" />
    <rect x="14" y="11" width="1" height="1" />
    <rect x="15" y="11" width="1" height="1" />
    <rect x="17" y="11" width="1" height="1" />
    <rect x="18" y="11" width="1" height="1" />
    <rect x="21" y="11" width="1" height="1" />
    <rect x="22" y="11" width="1" height="1" />
    <rect x="23" y="11" width="1" height="1" />
    <rect x="25" y="11" width="1" height="1" />
    <rect x="27" y="11" width="1" height="1" />
    <rect x="0" y="12" width="1" height="1" />
    <rect x="3" y="12" width="1" height="1" />
    <rect x="4" y="12" width="1" height="1" />
    <rect x="5" y="12" width="1" height="1" />
    <rect x="6" y="12" width="1" height="1" />
    <rect x="17" y="12" width="1" height="1" />
    <rect x="21" y="12" width="1" height="1" />
    <rect x="23" y="12" width="1" height="1" />
    <rect x="26" y="12" width="1" height="1" />
    <rect x="27" y="12" width="1" height="1" />
    <rect x="28" y="12" width="1" height="1" />
    <rect x="0" y="13" width="1" height="1" />
    <rect x="5" y="13" width="1" height="1" />
    <rect x="7" y="13" width="1" height="1" />
    <rect x="8" y="13" width="1" height="1" />
    <rect x="9" y="13" width="1" height="1" />
    <rect x="10" y="13" width="1" height="1" />
    <rect x="17" y="13" width="1" height="1" />
    <rect x="18" y="13" width="1" height="1" />
    <rect x="19" y="13" width="1" height="1" />
    <rect x="20" y="13" width="1" height="1" />
    <rect x="21" y="13" width="1" height="1" />
    <rect x="22" y="13" width="1" height="1" />
    <rect x="24" y="13" width="1" height="1" />
    <rect x="25" y="13" width="1" height="1" />
    <rect x="27" y="13" width="1" height="1" />
    <rect x="28" y="13" width="1" height="1" />
    <rect x="0" y="14" width="1" height="1" />
    <rect x="2" y="14" width="1" height="1" />
    <rect x="3" y="14" width="1" height="1" />
    <rect x="5" y="14" width="1" height="1" />
    <rect x="6" y="14" width="1" height="1" />
    <rect x="7" y="14" width="1" height="1" />
    <rect x="9" y="14" width="1" height="1" />
    <rect x="10" y="14" width="1" height="1" />
    <rect x="17" y="14" width="1" height="1" />
    <rect x="18" y="14" width="1" height="1" />
    <rect x="23" y="14" width="1" height="1" />
    <rect x="1" y="15" width="1" height="1" />
    <rect x="2" y="15" width="1" height="1" />
    <rect x="5" y="15" width="1" height="1" />
    <rect x="9" y="15" width="1" height="1" />
    <rect x="17" y="15" width="1" height="1" />
    <rect x="18" y="15" width="1" height="1" />
    <rect x="21" y="15" width="1" height="1" />
    <rect x="22" y="15" width="1" height="1" />
    <rect x="24" y="15" width="1" height="1" />
    <rect x="25" y="15" width="1" height="1" />
    <rect x="6" y="16" width="1" height="1" />
    <rect x="8" y="16" width="1" height="1" />
    <rect x="10" y="16" width="1" height="1" />
    <rect x="11" y="16" width="1" height="1" />
    <rect x="17" y="16" width="1" height="1" />
    <rect x="25" y="16" width="1" height="1" />
    <rect x="26" y="16" width="1" height="1" />
    <rect x="0" y="17" width="1" height="1" />
    <rect x="1" y="17" width="1" height="1" />
    <rect x="2" y="17" width="1" height="1" />
    <rect x="3" y="17" width="1" height="1" />
    <rect x="8" y="17" width="1" height="1" />
    <rect x="9" y="17" width="1" height="1" />
    <rect x="10" y="17" width="1" height="1" />
    <rect x="13" y="17" width="1" height="1" />
    <rect x="14" y="17" width="1" height="1" />
    <rect x="20" y="17" width="1" height="1" />
    <rect x="21" y="17" width="1" height="1" />
    <rect x="22" y="17" width="1" height="1" />
    <rect x="23" y="17" width="1" height="1" />
    <rect x="24" y="17" width="1" height="1" />
    <rect x="26" y="17" width="1" height="1" />
    <rect x="27" y="17" width="1" height="1" />
    <rect x="28" y="17" width="1" height="1" />
    <rect x="0" y="18" width="1" height="1" />
    <rect x="3" y="18" width="1" height="1" />
    <rect x="4" y="18" width="1" height="1" />
    <rect x="5" y="18" width="1" height="1" />
    <rect x="6" y="18" width="1" height="1" />
    <rect x="7" y="18" width="1" height="1" />
    <rect x="8" y="18" width="1" height="1" />
    <rect x="10" y="18" width="1" height="1" />
    <rect x="12" y="18" width="1" height="1" />
    <rect x="15" y="18" width="1" height="1" />
    <rect x="16" y="18" width="1" height="1" />
    <rect x="18" y="18" width="1" height="1" />
    <rect x="19" y="18" width="1" height="1" />
    <rect x="22" y="18" width="1" height="1" />
    <rect x="23" y="18" width="1" height="1" />
    <rect x="24" y="18" width="1" height="1" />
    <rect x="25" y="18" width="1" height="1" />
    <rect x="0" y="19" width="1" height="1" />
    <rect x="4" y="19" width="1" height="1" />
    <rect x="7" y="19" width="1" height="1" />
    <rect x="8" y="19" width="1" height="1" />
    <rect x="10" y="19" width="1" height="1" />
    <rect x="12" y="19" width="1" height="1" />
    <rect x="13" y="19" width="1" height="1" />
    <rect x="15" y="19" width="1" height="1" />
    <rect x="17" y="19" width="1" height="1" />
    <rect x="19" y="19" width="1" height="1" />
    <rect x="20" y="19" width="1" height="1" />
    <rect x="22" y="19" width="1" height="1" />
    <rect x="27" y="19" width="1" height="1" />
    <rect x="0" y="20" width="1" height="1" />
    <rect x="2" y="20" width="1" height="1" />
    <rect x="3" y="20" width="1" height="1" />
    <rect x="4" y="20" width="1" height="1" />
    <rect x="6" y="20" width="1" height="1" />
    <rect x="7" y="20" width="1" height="1" />
    <rect x="8" y="20" width="1" height="1" />
    <rect x="9" y="20" width="1" height="1" />
    <rect x="12" y="20" width="1" height="1" />
    <rect x="14" y="20" width="1" height="1" />
    <rect x="15" y="20" width="1" height="1" />
    <rect x="16" y="20" width="1" height="1" />
    <rect x="18" y="20" width="1" height="1" />
    <rect x="19" y="20" width="1" height="1" />
    <rect x="20" y="20" width="1" height="1" />
    <rect x="21" y="20" width="1" height="1" />
    <rect x="22" y="20" width="1" height="1" />
    <rect x="23" y="20" width="1" height="1" />
    <rect x="24" y="20" width="1" height="1" />
    <rect x="26" y="20" width="1" height="1" />
    <rect x="8" y="21" width="1" height="1" />
    <rect x="9" y="21" width="1" height="1" />
    <rect x="11" y="21" width="1" height="1" />
    <rect x="12" y="21" width="1" height="1" />
    <rect x="13" y="21" width="1" height="1" />
    <rect x="17" y="21" width="1" height="1" />
    <rect x="19" y="21" width="1" height="1" />
    <rect x="20" y="21" width="1" height="1" />
    <rect x="24" y="21" width="1" height="1" />
    <rect x="25" y="21" width="1" height="1" />
    <rect x="27" y="21" width="1" height="1" />
    <rect x="28" y="21" width="1" height="1" />
    <rect x="13" y="22" width="1" height="1" />
    <rect x="14" y="22" width="1" height="1" />
    <rect x="16" y="22" width="1" height="1" />
    <rect x="17" y="22" width="1" height="1" />
    <rect x="18" y="22" width="1" height="1" />
    <rect x="19" y="22" width="1" height="1" />
    <rect x="20" y="22" width="1" height="1" />
    <rect x="22" y="22" width="1" height="1" />
    <rect x="24" y="22" width="1" height="1" />
    <rect x="9" y="23" width="1" height="1" />
    <rect x="12" y="23" width="1" height="1" />
    <rect x="14" y="23" width="1" height="1" />
    <rect x="15" y="23" width="1" height="1" />
    <rect x="19" y="23" width="1" height="1" />
    <rect x="20" y="23" width="1" height="1" />
    <rect x="24" y="23" width="1" height="1" />
    <rect x="25" y="23" width="1" height="1" />
    <rect x="28" y="23" width="1" height="1" />
    <rect x="8" y="24" width="1" height="1" />
    <rect x="9" y="24" width="1" height="1" />
    <rect x="11" y="24" width="1" height="1" />
    <rect x="12" y="24" width="1" height="1" />
    <rect x="14" y="24" width="1" height="1" />
    <rect x="16" y="24" width="1" height="1" />
    <rect x="18" y="24" width="1" height="1" />
    <rect x="20" y="24" width="1" height="1" />
    <rect x="21" y="24" width="1" height="1" />
    <rect x="22" y="24" width="1" height="1" />
    <rect x="23" y="24" width="1" height="1" />
    <rect x="24" y="24" width="1" height="1" />
    <rect x="25" y="24" width="1" height="1" />
    <rect x="26" y="24" width="1" height="1" />
    <rect x="27" y="24" width="1" height="1" />
    <rect x="8" y="25" width="1" height="1" />
    <rect x="9" y="25" width="1" height="1" />
    <rect x="12" y="25" width="1" height="1" />
    <rect x="13" y="25" width="1" height="1" />
    <rect x="14" y="25" width="1" height="1" />
    <rect x="15" y="25" width="1" height="1" />
    <rect x="16" y="25" width="1" height="1" />
    <rect x="17" y="25" width="1" height="1" />
    <rect x="18" y="25" width="1" height="1" />
    <rect x="19" y="25" width="1" height="1" />
    <rect x="20" y="25" width="1" height="1" />
    <rect x="21" y="25" width="1" height="1" />
    <rect x="23" y="25" width="1" height="1" />
    <rect x="25" y="25" width="1" height="1" />
    <rect x="26" y="25" width="1" height="1" />
    <rect x="8" y="26" width="1" height="1" />
    <rect x="10" y="26" width="1" height="1" />
    <rect x="15" y="26" width="1" height="1" />
    <rect x="16" y="26" width="1" height="1" />
    <rect x="17" y="26" width="1" height="1" />
    <rect x="18" y="26" width="1" height="1" />
    <rect x="19" y="26" width="1" height="1" />
    <rect x="20" y="26" width="1" height="1" />
    <rect x="21" y="26" width="1" height="1" />
    <rect x="22" y="26" width="1" height="1" />
    <rect x="23" y="26" width="1" height="1" />
    <rect x="24" y="26" width="1" height="1" />
    <rect x="26" y="26" width="1" height="1" />
    <rect x="27" y="26" width="1" height="1" />
    <rect x="9" y="27" width="1" height="1" />
    <rect x="11" y="27" width="1" height="1" />
    <rect x="13" y="27" width="1" height="1" />
    <rect x="17" y="27" width="1" height="1" />
    <rect x="22" y="27" width="1" height="1" />
    <rect x="24" y="27" width="1" height="1" />
    <rect x="25" y="27" width="1" height="1" />
    <rect x="27" y="27" width="1" height="1" />
    <rect x="11" y="28" width="1" height="1" />
    <rect x="12" y="28" width="1" height="1" />
    <rect x="14" y="28" width="1" height="1" />
    <rect x="17" y="28" width="1" height="1" />
    <rect x="18" y="28" width="1" height="1" />
    <rect x="22" y="28" width="1" height="1" />
    <rect x="24" y="28" width="1" height="1" />
    <rect x="26" y="28" width="1" height="1" />
  </g>
  <g transform="translate(0 0)">
    <rect x="0" y="0" width="7" height="7" rx="1.5" fill="#FF9416" />
    <rect x="1" y="1" width="5" height="5" rx="1" fill="#FFFFFF" />
    <rect x="2" y="2" width="3" height="3" rx="0.5" fill="#FF9416" />
  </g>
  <g transform="translate(22 0)">
    <rect x="0" y="0" width="7" height="7" rx="1.5" fill="#FF9416" />
    <rect x="1" y="1" width="5" height="5" rx="1" fill="#FFFFFF" />
    <rect x="2" y="2" width="3" height="3" rx="0.5" fill="#FF9416" />
  </g>
  <g transform="translate(0 22)">
    <rect x="0" y="0" width="7" height="7" rx="1.5" fill="#FF9416" />
    <rect x="1" y="1" width="5" height="5" rx="1" fill="#FFFFFF" />
    <rect x="2" y="2" width="3" height="3" rx="0.5" fill="#FF9416" />
  </g>
  <rect x="12" y="12" width="5" height="5" fill="#FF9416" />
  <svg x="12.5" y="12.5" width="4" height="4" viewBox="0 0 654 654"><ellipse cx="327.5" cy="327" rx="166.5" ry="248" fill="white" />
<path fill-rule="evenodd" clip-rule="evenodd" d="M633 327C633 497.104 495.104 635 325 635C154.896 635 17 497.104 17 327C17 156.896 154.896 19 325 19C495.104 19 633 156.896 633 327ZM211.04 194.56H288.04V468.68H211.04V194.56ZM432.8 194.561H355.8V468.681H432.8V194.561Z" fill="#FF9416" /></svg>
  </svg>

  <g transform="translate(62.5300 145.0000) scale(0.015000 -0.015000)"><g fill="#FF9416"><path d="M52 688H279Q352 688 389.5 662.0Q427 636 440.0 586.5Q453 537 453 455Q453 376 441.0 326.5Q429 277 391.0 248.5Q353 220 278 220H190V0H52ZM244 341Q278 341 292.0 349.0Q306 357 310.5 379.5Q315 402 315 455Q315 508 310.5 530.0Q306 552 292.5 559.5Q279 567 245 567H190V341Z" /><path d="M353 0 326 141H172L145 0H8L150 688H351L493 0ZM252 558H246L192 260H305Z" transform="translate(475 0)" /><path d="M458 688V305Q458 169 446.5 107.5Q435 46 392.5 19.0Q350 -8 253 -8Q156 -8 113.5 19.0Q71 46 59.5 107.5Q48 169 48 305V688H185V259Q185 186 188.5 158.5Q192 131 205.5 122.0Q219 113 253 113Q287 113 300.0 122.0Q313 131 316.5 158.0Q320 185 320 259V688Z" transform="translate(976 0)" /><path d="M42 9V121Q144 113 183 113Q218 113 236.0 117.0Q254 121 263 131Q271 139 273.5 153.5Q276 168 276 195Q276 232 272.0 247.5Q268 263 255.5 270.5Q243 278 212 284L118 301Q68 310 49.0 356.0Q30 402 30 489Q30 574 54.5 619.0Q79 664 122.0 680.0Q165 696 231 696Q277 696 319.5 690.0Q362 684 389 678V566Q335 575 268 575Q232 575 212.5 572.0Q193 569 184 561Q173 553 170.0 538.0Q167 523 167 494Q167 463 170.5 449.0Q174 435 183.0 429.0Q192 423 214 419L302 403Q337 398 361.5 381.5Q386 365 400 327Q414 287 414 214Q414 119 391.0 71.0Q368 23 327.5 7.5Q287 -8 221 -8Q179 -8 129.5 -3.5Q80 1 42 9Z" transform="translate(1482 0)" /><path d="M52 0V688H386V567H190V408H359V287H190V121H386V0Z" transform="translate(1925 0)" /><path d="M353 0 326 141H172L145 0H8L150 688H351L493 0ZM252 558H246L192 260H305Z" transform="translate(2346 0)" /><path d="M53 0V688H190V0Z" transform="translate(2847 0)" /><path d="M51 0V132H192V0Z" transform="translate(3090 0)" /><path d="M53 0V688H190V0Z" transform="translate(3332 0)" /><path d="M347 0 187 377H183V0H52V688H185L334 340H339V688H471V0Z" transform="translate(3575 0)" /><path d="M52 0V688H371V567H190V392H349V271H190V0Z" transform="translate(4098 0)" /><path d="M39 344Q39 501 50.0 568.0Q61 635 105.0 665.5Q149 696 253 696Q357 696 401.0 665.5Q445 635 456.0 568.0Q467 501 467 344Q467 188 456.0 120.5Q445 53 401.0 22.5Q357 -8 253 -8Q149 -8 105.0 22.5Q61 53 50.0 120.5Q39 188 39 344ZM329 344Q329 467 325.0 510.0Q321 553 307.0 564.0Q293 575 253 575Q213 575 199.0 564.0Q185 553 181.0 510.0Q177 467 177 344Q177 221 181.0 178.0Q185 135 199.0 124.0Q213 113 253 113Q293 113 307.0 124.0Q321 135 325.0 178.0Q329 221 329 344Z" transform="translate(4490 0)" /></g></g></svg>